<svg width="201" height="128" viewBox="0 0 201 128" fill="none" xmlns="http://www.w3.org/2000/svg">
<path d="M172.225 2.48543C171.23 2.43537 170.234 2.57021 169.288 2.8831C167.888 3.50446 166.525 6.77903 165.554 11.9177C164.704 16.3681 164.339 20.8972 164.465 25.426C164.492 26.2397 164.909 26.9909 165.585 27.4454C169.941 30.5522 184.721 26.7557 186.289 26.3394C187.036 24.9103 193.843 11.5324 190.489 7.93475C187.54 4.74718 177.645 2.48543 172.225 2.48543Z" fill="white"/>
<path fill-rule="evenodd" clip-rule="evenodd" d="M165.212 27.9363C166.569 28.9181 168.834 29.2722 171.391 29.2722C177.348 29.2722 184.909 27.3459 186.366 26.9745C186.482 26.9451 186.559 26.9255 186.594 26.9173C186.68 26.8931 186.752 26.8347 186.793 26.7557L186.798 26.7462C187.194 26.0006 194.828 11.6251 190.962 7.49359C187.079 3.34291 172.661 0.7332 169.033 2.2866C165.405 3.84 163.457 18.4419 163.824 25.4509C163.863 26.4529 164.379 27.3762 165.212 27.9363ZM169.288 2.8831C170.234 2.57021 171.23 2.43537 172.225 2.48543C177.645 2.48543 187.54 4.74718 190.489 7.93475C193.844 11.5324 187.036 24.9103 186.289 26.3394C184.721 26.7557 169.941 30.5522 165.585 27.4454C164.909 26.9909 164.492 26.2397 164.465 25.426C164.339 20.8972 164.705 16.3681 165.554 11.9177C166.525 6.77903 167.888 3.50446 169.288 2.8831Z" fill="#231F20"/>
<path d="M130.438 110.086C140.817 105.517 147.843 95.6227 148.728 84.3309L138.429 73.2831L124.271 100.579" fill="white"/>
<path d="M130.439 110.409C130.287 110.404 130.159 110.293 130.132 110.144C130.105 109.994 130.186 109.846 130.327 109.788C140.513 105.242 147.432 95.5412 148.404 84.4427L138.51 73.8299L124.564 100.722C124.473 100.859 124.294 100.906 124.148 100.831C124.001 100.756 123.934 100.584 123.992 100.43L138.149 73.134C138.196 73.0409 138.287 72.9778 138.391 72.9662C138.494 72.9494 138.599 72.9843 138.672 73.0594L148.97 84.1134C149.033 84.1805 149.064 84.2706 149.058 84.3619C148.106 95.7583 141.013 105.732 130.551 110.384C130.516 110.402 130.477 110.41 130.439 110.409Z" fill="#231F20"/>
<path d="M162.362 126.962L193.514 126.36L193.084 87.1891L147.34 88.8357L140.974 126.962H162.362Z" fill="#231F20"/>
<path fill-rule="evenodd" clip-rule="evenodd" d="M140.974 127.273H162.362H162.368L193.52 126.652C193.602 126.65 193.681 126.616 193.738 126.556C193.795 126.497 193.827 126.417 193.825 126.335L193.395 87.1891C193.396 87.1038 193.36 87.0223 193.296 86.9654C193.234 86.9104 193.155 86.8794 193.072 86.8784L147.327 88.5251C147.179 88.5296 147.056 88.6397 147.035 88.786L140.669 126.913C140.651 127.002 140.676 127.094 140.737 127.161C140.795 127.232 140.882 127.273 140.974 127.273ZM162.362 126.652H141.341L147.601 89.134L192.779 87.506L193.203 126.03L162.362 126.652Z" fill="#231F20"/>
<path d="M199.519 43.7313C196.731 39.9472 190.06 37.9526 185.567 37.2381C181.242 36.5546 176.911 37.2381 172.568 36.8652C168.59 36.6328 164.601 37.0228 160.744 38.021C146.251 42.0225 132.778 62.9748 132.778 62.9748L147.552 63.7515C147.552 63.7515 145.405 79.1798 139.244 112.988C164.907 113.901 194.777 116.449 194.777 116.449C194.777 116.449 194.908 109.372 195.231 102.406C197.546 100.25 197.465 96.814 197.889 94.8194C198.436 92.2532 197.329 64.3728 197.329 64.3728L200.695 63.1301C200.695 63.1301 200.739 45.3592 199.519 43.7313Z" fill="#E7816B"/>
<path d="M165 43.3398L153.743 117.275L167.185 118.624L182.474 43.1845L165 43.3398Z" fill="#231F20"/>
<path fill-rule="evenodd" clip-rule="evenodd" d="M167.153 118.934H167.185C167.334 118.934 167.463 118.827 167.489 118.68L182.773 43.2466C182.791 43.1537 182.766 43.0577 182.705 42.9856C182.646 42.9123 182.556 42.8708 182.462 42.8738L164.994 43.0291C164.842 43.0302 164.713 43.1405 164.689 43.2901L153.432 117.232C153.416 117.315 153.437 117.401 153.488 117.468C153.542 117.534 153.621 117.576 153.706 117.586L167.153 118.934ZM166.954 118.288L154.116 117.002L165.287 43.6443L182.088 43.4951L166.954 118.288Z" fill="#231F20"/>
<path d="M166.998 34.0691L165.063 43.3398C165.063 43.3398 167.122 49.4975 173.364 48.845C177.099 48.4233 180.445 46.3441 182.474 43.1845L184.69 26.1468C184.69 26.1468 180.527 23.1581 183.153 13.6202C177.923 15.0777 172.397 15.1035 167.154 13.6948C167.154 13.6948 162.99 23.8664 163.096 28.6074C163.202 33.3483 166.998 34.0691 166.998 34.0691Z" fill="white"/>
<path fill-rule="evenodd" clip-rule="evenodd" d="M164.761 43.4489C164.86 43.7182 166.87 49.2179 172.462 49.2179C172.782 49.2182 173.102 49.1995 173.42 49.1619C177.256 48.7447 180.693 46.6035 182.754 43.346C182.777 43.3101 182.792 43.2699 182.798 43.228L185.013 26.1903C185.032 26.0721 184.981 25.9537 184.882 25.8858C184.845 25.861 180.931 22.9219 183.464 13.701C183.496 13.5874 183.462 13.4652 183.377 13.3841C183.289 13.3038 183.165 13.2776 183.053 13.3157C177.882 14.7395 172.424 14.7631 167.241 13.3841C167.084 13.3444 166.921 13.4267 166.861 13.5767C166.687 13.993 162.679 23.8664 162.779 28.6509C162.891 32.7891 165.666 34.007 166.624 34.3052L164.758 43.2715C164.742 43.3263 164.742 43.3844 164.758 43.4392C164.758 43.4404 164.759 43.4437 164.761 43.4489ZM173.333 48.5282C167.726 49.106 165.666 44.0482 165.399 43.315L167.309 34.1623C167.327 34.0762 167.309 33.9864 167.259 33.9138C167.212 33.8437 167.137 33.7964 167.054 33.7833L167.048 33.7822C166.837 33.7389 163.506 33.0558 163.413 28.6571C163.328 24.5209 166.573 16.1101 167.3 14.2246C167.317 14.1812 167.332 14.1412 167.346 14.1049C172.383 15.37 177.655 15.37 182.692 14.1049C180.582 22.4 183.601 25.6808 184.347 26.3021L182.163 43.0788C180.17 46.1082 176.938 48.1029 173.333 48.5282Z" fill="#231F20"/>
<path d="M181.186 25.3763C181.503 24.5732 182.073 23.8949 182.81 23.4439C183.513 23.0577 184.277 22.7949 185.069 22.6672C185.495 22.5507 185.941 22.5295 186.376 22.605C186.671 22.6976 186.948 22.8429 187.191 23.0338C187.796 23.4438 188.236 24.0531 188.436 24.755C188.524 25.339 188.471 25.9356 188.28 26.4948C188.124 27.1151 187.883 27.7109 187.565 28.2656C186.907 29.3762 185.829 30.1762 184.575 30.4858C183.32 30.7954 181.994 30.5888 180.894 29.9122" fill="white"/>
<path d="M183.439 30.9375C182.487 30.939 181.552 30.6789 180.738 30.1856C180.588 30.0922 180.541 29.8957 180.633 29.7445C180.676 29.6711 180.748 29.6186 180.831 29.5987C180.914 29.5788 181.002 29.5933 181.074 29.6388C182.106 30.2576 183.338 30.4494 184.509 30.1732C185.681 29.8812 186.688 29.137 187.31 28.1041C187.613 27.5723 187.841 27.0015 187.988 26.4078C188.163 25.9011 188.215 25.36 188.137 24.8295C187.953 24.2024 187.554 23.6595 187.011 23.2948C186.8 23.1252 186.56 22.9966 186.302 22.9157C185.916 22.8541 185.521 22.8753 185.144 22.9779C184.378 23.1005 183.637 23.3504 182.954 23.7173C182.276 24.1323 181.752 24.756 181.46 25.4944C181.395 25.666 181.203 25.7522 181.031 25.687C180.859 25.6218 180.773 25.4298 180.838 25.2583C181.184 24.3926 181.799 23.6607 182.593 23.1705C183.345 22.7652 184.162 22.4939 185.007 22.3689C185.48 22.239 185.976 22.2198 186.457 22.313C186.795 22.4128 187.11 22.5774 187.384 22.7977C188.058 23.2472 188.547 23.9246 188.76 24.7052C188.857 25.3301 188.803 25.9691 188.604 26.5693C188.44 27.2215 188.189 27.8485 187.857 28.4334C187.148 29.6126 186 30.4636 184.665 30.8008C184.263 30.8956 183.852 30.9415 183.439 30.9375Z" fill="#231F20"/>
<path d="M166.251 38.7045C168.474 39.2625 170.83 38.8319 172.711 37.5239C175.723 35.3181 175.692 33.7957 175.692 33.7957C175.692 33.7957 171.08 35.5728 167.222 34.2493L166.251 38.7045Z" fill="#231F20"/>
<path fill-rule="evenodd" clip-rule="evenodd" d="M166.164 39.0027C166.837 39.1775 167.529 39.2631 168.224 39.2575C169.899 39.2674 171.533 38.7403 172.885 37.7538C175.996 35.4796 175.996 33.8392 175.996 33.7709C175.997 33.67 175.945 33.576 175.859 33.5223C175.772 33.4759 175.667 33.4759 175.579 33.5223C175.536 33.541 171.024 35.2124 167.322 33.9697C167.243 33.9327 167.152 33.9327 167.073 33.9697C166.995 34.0125 166.94 34.0876 166.923 34.1748L165.953 38.6423C165.916 38.7994 166.009 38.9575 166.164 39.0027ZM172.53 37.2753C170.808 38.4691 168.67 38.9027 166.618 38.4746L167.452 34.647C170.539 35.5666 173.943 34.6905 175.25 34.2742C175.019 34.8583 174.366 35.927 172.53 37.2753Z" fill="#231F20"/>
<path d="M172.567 20.2004C172.567 20.2004 168.616 24.3573 169.226 25.3017C169.835 26.2462 172.02 26.0971 172.02 26.0971" fill="white"/>
<path d="M171.559 26.3891C170.819 26.3891 169.481 26.2711 168.964 25.4695C168.292 24.4381 171.099 21.2878 172.337 19.9891C172.396 19.9303 172.475 19.8972 172.558 19.8972C172.641 19.8972 172.721 19.9303 172.779 19.9891C172.837 20.0464 172.87 20.1248 172.87 20.2066C172.87 20.2884 172.837 20.3668 172.779 20.4241C170.763 22.5491 169.219 24.7736 169.475 25.1464C169.885 25.7678 171.466 25.8113 171.964 25.7678C172.134 25.7534 172.283 25.878 172.3 26.0474C172.307 26.1298 172.28 26.2116 172.227 26.2746C172.173 26.3376 172.096 26.3766 172.014 26.3829C171.989 26.3767 171.802 26.3891 171.559 26.3891Z" fill="#231F20"/>
<ellipse cx="177.918" cy="20.9748" rx="1.11247" ry="0.790145" transform="rotate(-68.08 177.918 20.9748)" fill="#231F20"/>
<ellipse cx="169.72" cy="19.6355" rx="1.11247" ry="0.790145" transform="rotate(-68.08 169.72 19.6355)" fill="#231F20"/>
<path d="M172.014 31.6334C171.695 31.6329 171.377 31.5932 171.068 31.5153C166.761 30.4777 166.861 25.4571 166.861 25.4074C166.871 25.2373 167.014 25.1055 167.185 25.1091C167.267 25.1107 167.345 25.1452 167.401 25.2049C167.457 25.2645 167.487 25.3442 167.483 25.426C167.483 25.6124 167.402 29.993 171.217 30.9126C175.032 31.8322 176.917 25.8113 176.936 25.7491C176.961 25.6345 177.05 25.5441 177.164 25.5154C177.278 25.4867 177.398 25.5247 177.475 25.6136C177.552 25.7025 177.572 25.827 177.527 25.9355C177.446 26.1841 175.698 31.6334 172.014 31.6334Z" fill="#231F20"/>
<path d="M35.9995 45.9806L59.2607 72.0093L91.8066 83.374L87.6497 91.9612C87.6497 91.9612 66.5229 88.7736 58.2029 87.8416C49.8828 86.9095 39.3661 74.4326 39.3661 74.4326L35.9995 45.9806Z" fill="white"/>
<path fill-rule="evenodd" clip-rule="evenodd" d="M87.6063 92.2656H87.6499C87.7708 92.2663 87.8806 92.1956 87.9299 92.0854L92.0931 83.4734C92.1304 83.3926 92.1304 83.2995 92.0931 83.2186C92.06 83.1379 91.9945 83.0748 91.9126 83.0447L59.4415 71.7049L36.23 45.7382C36.139 45.6373 35.9928 45.6071 35.8691 45.6637C35.7493 45.7221 35.6776 45.8479 35.6886 45.9806L39.0552 74.4699C39.0618 74.5304 39.088 74.5872 39.1299 74.6315C39.5593 75.1472 49.8208 87.2078 58.1658 88.146C64.3472 88.8422 77.7595 90.8208 84.1228 91.7595C86.2218 92.0691 87.5539 92.2656 87.6063 92.2656ZM58.2342 87.5247C50.4556 86.6485 40.53 75.3025 39.665 74.2959L36.4229 46.9126L59.0432 72.1957C59.0784 72.2356 59.1234 72.2656 59.1739 72.2827L91.3899 83.5355L87.4819 91.6132C85.1607 91.2528 66.0128 88.4008 58.2342 87.5247Z" fill="#231F20"/>
<path d="M47.2939 33.075C46.9703 30.894 46.0929 28.8373 45.427 26.7433C43.7469 21.6668 43.5042 16.4287 41.7431 11.3709C39.4842 4.86524 35.1468 0.130484 27.5611 0.397668C24.4377 0.399758 21.622 2.27732 20.4234 5.15728C16.8328 3.18136 12.0474 7.20155 11.8793 10.88C11.6304 16.3045 11.9789 20.9336 9.61419 26.0722C7.822 29.9744 5.04658 33.628 4.81633 37.9153C4.58608 42.2027 7.01924 46.2105 10.5041 48.5779C13.9889 50.9452 18.3823 51.7344 22.5827 51.4237C26.7832 51.113 30.8468 49.7709 34.7485 48.1678C36.6687 47.4261 38.5112 46.4979 40.2496 45.3965C44.2136 42.7495 48.0531 38.1204 47.2939 33.075Z" fill="white"/>
<path fill-rule="evenodd" clip-rule="evenodd" d="M10.3298 48.8326C13.4626 50.847 17.1275 51.8793 20.8527 51.7965C21.4315 51.7965 22.0164 51.7779 22.5889 51.7468C27.2188 51.405 31.5686 49.8144 34.8481 48.466C36.7936 47.7199 38.6594 46.7811 40.4176 45.6637C44.4065 42.9856 48.3891 38.2944 47.6175 33.0439C47.3159 31.3927 46.8575 29.774 46.2484 28.2097C46.0618 27.694 45.8813 27.172 45.707 26.6563C44.9573 24.212 44.369 21.7212 43.946 19.2C43.4959 16.5166 42.8533 13.869 42.0231 11.2777C39.3908 3.71573 34.3751 -0.130484 27.5299 0.0932049C24.4127 0.0990553 21.5829 1.91318 20.2802 4.74097C18.7062 4.0837 16.9096 4.23686 15.4699 5.15107C13.267 6.38136 11.6677 8.7301 11.5682 10.8676C11.5636 10.9661 11.5589 11.0648 11.5543 11.1636C11.5147 12.0051 11.4748 12.8525 11.4748 13.6699C11.3566 18.0194 11.2508 21.7476 9.33414 25.9417C8.84699 26.9997 8.27643 28.0576 7.72157 29.0865L7.68506 29.1542C6.20401 31.9006 4.67318 34.7402 4.50516 37.9029C4.28113 41.9977 6.59606 46.2788 10.3298 48.8326ZM15.7686 5.68544C16.5557 5.22065 17.4494 4.96601 18.3636 4.94602L18.3698 4.97087C19.037 4.96543 19.6946 5.13011 20.2802 5.44932C20.3591 5.48634 20.4503 5.48634 20.5292 5.44932C20.6087 5.42204 20.6738 5.36376 20.7096 5.28777C21.8571 2.52214 24.5568 0.716079 27.5548 0.708351C34.2258 0.472234 38.8681 4.09476 41.4568 11.4765C42.2713 14.041 42.8953 16.6619 43.3237 19.3181C43.7548 21.8603 44.3514 24.3718 45.1096 26.8365C45.2462 27.2505 45.3904 27.6606 45.5333 28.0669C45.5727 28.179 45.612 28.2908 45.651 28.4023C46.2469 29.9286 46.6969 31.5076 46.9952 33.1184C47.7295 38.0831 43.8962 42.5817 40.0691 45.1355C38.3494 46.2284 36.5255 47.1483 34.624 47.8819C31.3881 49.2117 27.0694 50.7961 22.5516 51.113C18.0338 51.4299 13.8209 50.4544 10.6721 48.3231C7.08766 45.8874 4.90965 41.8113 5.115 37.934C5.28273 34.9194 6.77754 32.1401 8.21894 29.4602L8.22646 29.4462C8.79897 28.3899 9.39014 27.2963 9.8942 26.2027C11.8609 21.916 11.972 17.9381 12.0898 13.721L12.0909 13.6823C12.1158 12.7565 12.1407 11.8431 12.1842 10.8924C12.2713 8.96 13.7462 6.81631 15.7686 5.68544Z" fill="#231F20"/>
<path d="M47.4124 49.8827C47.151 48.8513 46.871 47.8322 46.5599 46.8194C45.7384 44.1041 44.7614 40.1647 42.8261 38.0085C39.6711 34.5165 32.5708 34.4047 28.2583 34.3798C21.5811 34.3425 14.7546 35.9084 9.29707 39.7421C0.896145 45.6451 -0.659583 54.2136 0.304968 63.7701C1.41265 74.4575 2.79413 85.12 4.29385 95.7639C4.4432 96.8575 6.24162 113.118 7.0506 113.125C7.10661 113.125 62.4345 113.168 60.6672 114.473C58.178 105.842 56.3112 97.075 54.3074 88.3759C53.8842 86.5118 53.1313 84.8218 52.6708 83.0074C52.0049 80.3852 52.3098 77.5084 52.0485 74.8241C51.5071 68.6105 50.1816 62.4963 48.8872 56.407C48.433 54.2198 47.96 52.0388 47.4124 49.8827Z" fill="#E7816B"/>
<path d="M63.0939 127.167L56.7527 99.3802L5.53817 103.593L4.88477 127.167H63.0939Z" fill="#231F20"/>
<path fill-rule="evenodd" clip-rule="evenodd" d="M4.88491 127.478H63.094C63.1774 127.468 63.2535 127.426 63.3056 127.36C63.3632 127.286 63.3859 127.191 63.3678 127.099L57.0267 99.3119C56.9863 99.1645 56.8498 99.0641 56.6969 99.0695L5.4823 103.282C5.32394 103.298 5.20153 103.428 5.19605 103.587L4.57376 127.161C4.57296 127.244 4.60415 127.324 4.66088 127.385C4.72024 127.444 4.80081 127.478 4.88491 127.478ZM62.7144 126.857H5.22094L5.82456 103.879L56.4915 99.7157L62.7144 126.857Z" fill="#231F20"/>
<path d="M32.7136 57.7864C32.8842 57.8561 33.0649 57.8981 33.2488 57.9107C34.4125 57.9977 35.3273 56.9165 35.8064 55.854C36.8768 53.4866 36.8768 50.7899 36.6901 48.2051C36.6544 46.6784 36.327 45.1726 35.7255 43.7685C35.1533 42.6791 34.3855 41.704 33.4604 40.8917C31.7989 39.3569 29.7827 38.0707 27.5362 37.7849C25.2897 37.499 22.004 38.7169 21.3133 41.1775C20.5914 43.8369 23.3917 46.515 24.7483 48.4722C26.7067 51.3011 28.8477 53.9994 31.1579 56.5499C31.5752 57.0752 32.1074 57.4982 32.7136 57.7864Z" fill="#231F20"/>
<path fill-rule="evenodd" clip-rule="evenodd" d="M33.2241 58.2214H33.3859C34.9478 58.2214 35.8439 56.5437 36.0866 55.9907C37.213 53.5115 37.1819 50.6843 37.0014 48.1988C36.9611 46.6314 36.6232 45.0859 36.0057 43.6443C35.4196 42.5197 34.6282 41.5145 33.6721 40.6804C31.6621 38.8163 29.6086 37.7476 27.5737 37.5115C24.9725 37.2008 21.7241 38.5864 21.0334 41.134C20.4111 43.4082 22.166 45.6513 23.5723 47.447C23.9208 47.8944 24.2444 48.3107 24.5058 48.6897C26.4763 51.5162 28.6255 54.2143 30.9403 56.7674C31.3876 57.3243 31.9557 57.7726 32.6018 58.0784C32.8022 58.1526 33.0114 58.2006 33.2241 58.2214ZM33.2739 57.5938C33.1199 57.5823 32.9687 57.5467 32.8258 57.4882C32.2676 57.2097 31.7819 56.8056 31.407 56.3076C29.1063 53.7708 26.9736 51.087 25.0223 48.2734C24.7588 47.9226 24.4512 47.5278 24.1254 47.1096C24.105 47.0834 24.0845 47.0571 24.064 47.0307C22.7385 45.3468 21.0956 43.2404 21.6308 41.2645C22.2282 39.0586 25.2028 37.8283 27.499 38.0955C29.4032 38.3192 31.3385 39.332 33.249 41.1029C34.1487 41.8858 34.8938 42.83 35.4457 43.8866C36.0267 45.2653 36.3434 46.7407 36.3791 48.2361C36.5533 50.6221 36.5845 53.3748 35.5203 55.7297C35.091 56.6742 34.2509 57.6808 33.2739 57.5938Z" fill="#231F20"/>
<rect x="59.5845" y="8.27029" width="87.4817" height="93.2536" fill="white"/>
<path fill-rule="evenodd" clip-rule="evenodd" d="M59.5846 101.828H147.06C147.232 101.828 147.371 101.689 147.371 101.518V8.27029C147.371 8.09871 147.232 7.95961 147.06 7.95961H59.5846C59.4127 7.95961 59.2734 8.09871 59.2734 8.27029V101.518C59.2734 101.689 59.4127 101.828 59.5846 101.828ZM146.749 101.207H59.8957V8.58097H146.749V101.207Z" fill="#231F20"/>
<rect x="65.2285" y="15.4408" width="76.1809" height="68.4551" fill="white"/>
<path fill-rule="evenodd" clip-rule="evenodd" d="M65.2286 84.2066H141.416C141.5 84.2067 141.582 84.1722 141.64 84.1113C141.699 84.0503 141.73 83.968 141.727 83.8835V15.4408C141.727 15.2692 141.588 15.1301 141.416 15.1301H65.2286C65.0568 15.1301 64.9175 15.2692 64.9175 15.4408V83.8959C64.9175 84.0675 65.0568 84.2066 65.2286 84.2066ZM141.105 83.5852H65.5398V15.7515H141.105V83.5852Z" fill="#D1D3D4"/>
<path d="M132.89 39.3507C131.795 40.5561 130.75 41.8361 129.605 42.9608C126.611 46.0054 123.575 49.0066 120.557 52.0264C120.451 52.132 120.37 52.275 120.245 52.3309C119.704 52.567 119.001 53.0889 118.64 52.9087C118.146 52.527 117.845 51.9474 117.819 51.3243C117.731 48.9942 117.787 46.6641 117.787 44.1724C116.804 44.1724 115.877 44.1351 114.95 44.1724C111.446 44.3402 108.073 45.0361 105.024 46.8567C101.256 48.9438 98.873 52.8639 98.7578 57.1651C98.7899 58.3237 98.9761 59.4729 99.3116 60.5825C99.4423 61.1666 99.7721 61.8252 99.0378 62.0551C98.4853 62.0573 97.9705 61.7756 97.675 61.3095C96.7279 59.4316 95.9692 57.4647 95.4098 55.4377C93.3127 45.9682 98.5213 37.2878 107.937 34.3115C110.65 33.4451 113.482 33.0028 116.331 33.0004H117.781C117.781 31.1798 117.781 29.4462 117.781 27.7126C117.763 26.8808 117.819 26.049 117.949 25.2272C118.136 24.2827 118.733 24.059 119.573 24.5251C119.913 24.7377 120.223 24.9947 120.494 25.2893C124.29 29.0796 128.082 32.8761 131.87 36.6788C132.243 37.1144 132.582 37.5776 132.884 38.0645L132.89 39.3507Z" fill="#E7816B"/>
<path d="M85.5154 73.5068C83.3848 73.1016 81.446 72.0103 79.9957 70.4C78.6047 68.7958 77.8421 66.7432 77.8488 64.6214C77.8488 56.3759 77.799 48.1367 77.8488 39.8913C77.8371 37.5465 78.7652 35.2946 80.4263 33.6372C82.0873 31.9798 84.3433 31.0547 86.6915 31.068C88.2286 31.0307 89.7594 31.0307 91.2965 31.068C92.5411 31.068 93.3252 31.8074 93.3127 32.8885C93.3003 33.9697 92.5349 34.5849 91.3214 34.5973C89.8217 34.5973 88.3282 34.5973 86.8284 34.5973C85.3848 34.5513 83.985 35.0969 82.9543 36.1073C81.9236 37.1177 81.3515 38.5051 81.371 39.9472C81.3461 48.232 81.3461 56.5168 81.371 64.8016C81.3709 66.2066 81.934 67.5531 82.9348 68.5407C83.9357 69.5284 85.2908 70.0749 86.6978 70.0583C94.8809 70.0583 108.988 70.0583 117.19 70.0583C118.653 70.1229 120.077 69.576 121.12 68.5491C122.162 67.5221 122.73 66.1079 122.685 64.6462C122.728 62.0551 122.685 59.4641 122.685 56.873C122.685 55.6303 123.22 54.9717 124.234 54.835C125.081 54.7169 126.101 55.301 126.101 56.146C126.101 59.607 126.356 63.1052 125.939 66.5165C125.479 70.2447 122.579 72.7301 118.839 73.4322C118.7 73.4722 118.565 73.5242 118.435 73.5876L85.5154 73.5068Z" fill="#E7816B"/>
<path d="M140.849 90.7992H76.3365C76.1647 90.7992 76.0254 90.6601 76.0254 90.4885C76.0254 90.317 76.1647 90.1779 76.3365 90.1779H140.849C141.021 90.1779 141.161 90.317 141.161 90.4885C141.161 90.6601 141.021 90.7992 140.849 90.7992Z" fill="#D1D3D4"/>
<path d="M124.813 95.6396H76.3365C76.1647 95.6396 76.0254 95.5005 76.0254 95.3289C76.0254 95.1573 76.1647 95.0182 76.3365 95.0182H124.813C124.985 95.0182 125.124 95.1573 125.124 95.3289C125.121 95.4991 124.983 95.6363 124.813 95.6396Z" fill="#D1D3D4"/>
<ellipse cx="68.8193" cy="91.7437" rx="3.5844" ry="3.57903" fill="white"/>
<path fill-rule="evenodd" clip-rule="evenodd" d="M65.21 93.2389C65.8159 94.6945 67.2406 95.6421 68.8192 95.6396C70.9717 95.6362 72.7148 93.8929 72.7148 91.7437C72.7148 90.1674 71.7635 88.7464 70.3047 88.1437C68.846 87.5411 67.1673 87.8755 66.0518 88.9911C64.9364 90.1066 64.6042 91.7833 65.21 93.2389ZM65.7844 90.4939C66.2936 89.2697 67.4917 88.4728 68.8192 88.4753C70.6256 88.4788 72.0891 89.94 72.0925 91.7437C72.095 93.0693 71.2969 94.2656 70.0709 94.774C68.8449 95.2824 67.4328 95.0027 66.4941 94.0654C65.5554 93.128 65.2752 91.7181 65.7844 90.4939Z" fill="#D1D3D4"/>
<path d="M39.2043 14.2167C39.2043 14.2167 42.3157 21.4555 41.4134 27.1658C40.9687 30.4188 38.6389 33.101 35.4768 34.0008L36.0991 43.9736C36.0991 43.9736 36.4787 49.0687 30.1686 48.6897C26.4539 48.4564 23.1226 46.3258 21.357 43.054L19.4839 24.7798C19.4839 24.7798 26.3291 20.2439 25.265 13.701C25.265 13.701 33.9584 17.2241 39.2043 14.2167Z" fill="white"/>
<path fill-rule="evenodd" clip-rule="evenodd" d="M30.1812 49.0315H30.8533C32.7077 49.0315 34.139 48.5344 35.1097 47.5713C36.0086 46.6008 36.4833 45.3129 36.429 43.9922L35.8067 34.268C38.9612 33.2473 41.2562 30.5191 41.7185 27.2404C42.6519 21.5052 39.6089 14.4155 39.4782 14.1173C39.4445 14.0348 39.3762 13.9712 39.2915 13.9433C39.2099 13.9091 39.118 13.9091 39.0364 13.9433C34.3627 16.6339 26.6876 13.8809 25.5307 13.4659C25.4399 13.4333 25.3892 13.4151 25.3833 13.4151C25.2793 13.3725 25.1604 13.3891 25.0722 13.4586C24.9838 13.5279 24.9407 13.6402 24.9602 13.7507C25.9558 20.014 19.3782 24.4753 19.3098 24.5188C19.2142 24.584 19.1618 24.6959 19.1729 24.8109L21.0771 43.1161C21.0808 43.153 21.0913 43.1888 21.1082 43.2218C22.9393 46.5794 26.3612 48.7706 30.1812 49.0315ZM30.2185 48.3915C26.6397 48.1531 23.4278 46.1142 21.6931 42.9794L19.8449 24.9538C20.8406 24.233 26.2483 20.0264 25.6696 14.1981C27.5676 14.894 34.4252 17.0812 39.0675 14.6765C39.6462 16.1243 41.93 22.2509 41.1397 27.141C40.7307 30.2802 38.4893 32.8749 35.4395 33.7398C35.29 33.7732 35.187 33.9102 35.1968 34.0629L35.8191 44.0047C35.8561 45.1506 35.443 46.2655 34.6679 47.1115C33.7158 48.0808 32.2161 48.5095 30.2185 48.3915Z" fill="#231F20"/>
<path d="M22.8569 23.2637C22.8569 23.2637 19.2912 16.5406 16.13 21.1262C12.9687 25.7118 18.3204 30.1732 21.3759 29.5581" fill="white"/>
<path d="M20.7661 29.9371C19.0174 29.9371 16.9265 28.6944 15.7877 26.9359C14.5213 25.1297 14.5691 22.7133 15.906 20.9585C16.7461 19.7157 17.7044 19.1565 18.7561 19.2249C21.1643 19.3678 23.1121 22.953 23.1619 23.1208C23.2178 23.2679 23.1548 23.4335 23.0152 23.5064C22.8755 23.5793 22.7033 23.5365 22.6143 23.4066C22.6143 23.4066 20.7474 19.9705 18.6689 19.8462C17.8392 19.7965 17.0738 20.2853 16.3727 21.3126C15.1911 22.8622 15.1459 24.996 16.2607 26.5942C17.4368 28.3837 19.7019 29.5829 21.3012 29.2598C21.4709 29.2293 21.6339 29.3397 21.6684 29.5084C21.6848 29.5884 21.6683 29.6716 21.6227 29.7394C21.5771 29.8071 21.5061 29.8537 21.4257 29.8687C21.2085 29.9128 20.9876 29.9357 20.7661 29.9371Z" fill="#231F20"/>
<path d="M36.5909 27.1223C36.0835 27.1218 35.5772 27.074 35.0787 26.9794C34.9975 26.966 34.9254 26.9198 34.8794 26.8516C34.8335 26.7833 34.8178 26.6992 34.836 26.619C34.8511 26.5371 34.8984 26.4647 34.9675 26.418C35.0365 26.3712 35.1214 26.3541 35.2032 26.3705C35.2032 26.3705 37.2194 26.7619 38.1715 26.1841C38.3084 25.4074 36.3918 22.8039 34.9978 21.2132C34.9432 21.1518 34.9157 21.0711 34.9215 20.9892C34.9274 20.9073 34.9661 20.8312 35.029 20.7782C35.1521 20.6591 35.3477 20.6591 35.4708 20.7782C36.0931 21.4617 39.0116 24.9538 38.8063 26.2338C38.7776 26.4343 38.6614 26.6118 38.4889 26.7184C37.902 27.015 37.2479 27.1542 36.5909 27.1223Z" fill="#231F20"/>
<path d="M35.4708 34.0132C35.4708 34.0132 30.1813 35.0322 27.0698 34.4544C27.0698 34.4544 30.9218 42.0847 35.9935 41.7118L35.4708 34.0132Z" fill="#231F20"/>
<path fill-rule="evenodd" clip-rule="evenodd" d="M26.796 34.5849C26.9205 34.9017 30.6169 42.0412 35.6325 42.0412C35.7653 42.0412 35.896 42.0453 36.0246 42.0536C36.1941 42.0403 36.3215 41.8937 36.3108 41.7243L35.7881 34.0256C35.7808 33.9381 35.7381 33.8574 35.6699 33.8019C35.5987 33.7485 35.5089 33.7261 35.421 33.7398C35.3649 33.7522 30.1501 34.7402 27.132 34.1748C27.014 34.1314 26.8814 34.1632 26.796 34.2555C26.7314 34.3558 26.7314 34.4846 26.796 34.5849ZM35.6388 41.4198C31.737 41.4198 28.6255 36.5111 27.6485 34.852C30.3431 35.1689 34.0457 34.5849 35.1596 34.386L35.6388 41.4198Z" fill="#231F20"/>
<ellipse cx="31.9843" cy="20.0293" rx="0.78407" ry="1.37323" transform="rotate(-6.85 31.9843 20.0293)" fill="#231F20"/>
<ellipse cx="38.807" cy="19.7836" rx="0.78407" ry="1.37323" transform="rotate(-6.85 38.807 19.7836)" fill="#231F20"/>
<path d="M33.4417 30.1111C32.9889 30.1079 32.5417 30.0105 32.1287 29.8252C30.6103 29.1666 29.6395 27.3398 29.235 24.3511C29.2109 24.1795 29.3308 24.0209 29.5026 23.9969C29.6744 23.9729 29.8332 24.0925 29.8573 24.2641C30.2307 27.0043 31.1019 28.6819 32.3838 29.2349C33.9582 29.9309 35.7317 28.7192 35.7504 28.7068C35.8413 28.6364 35.9637 28.6219 36.0686 28.669C36.1735 28.7161 36.2438 28.8171 36.2515 28.9317C36.2591 29.0463 36.2028 29.1557 36.1051 29.2163C35.3172 29.7546 34.3953 30.0643 33.4417 30.1111Z" fill="#231F20"/>
<path d="M117.047 101.841C116.944 101.153 116.877 100.46 116.848 99.7654C116.801 98.3216 117.026 96.8819 117.513 95.5215C117.662 94.9162 117.995 94.3715 118.465 93.9619C118.969 93.5671 119.69 93.6182 120.133 94.08C120.376 94.5782 120.398 95.1551 120.195 95.6707C119.871 97.1138 119.797 98.6019 119.978 100.07C120.214 98.094 120.475 96.0435 121.552 94.3782C121.776 93.9884 122.095 93.6613 122.479 93.4276C122.872 93.1934 123.362 93.1934 123.755 93.4276C124.309 93.8314 124.265 94.6703 124.197 95.3289C124.021 97.0681 124.049 98.8216 124.278 100.555C124.153 99.0305 124.265 97.4965 124.607 96.0062C124.831 95.0307 125.273 93.9557 126.225 93.645C126.425 93.5754 126.641 93.5625 126.848 93.6078C127.283 93.7554 127.601 94.1305 127.675 94.5833C127.747 95.0278 127.747 95.4809 127.675 95.9254C127.496 97.675 127.55 99.4407 127.837 101.176C127.613 99.6541 127.67 98.1041 128.005 96.6027C128.093 96.0016 128.333 95.4327 128.702 94.9499C129.088 94.4591 129.743 94.2669 130.333 94.4714C130.754 94.6945 131.046 95.1014 131.123 95.5713C131.196 96.0357 131.212 96.5071 131.173 96.9755C131.13 98.747 131.459 100.508 132.137 102.145C132.697 103.506 133.425 105.016 133.295 106.538C133.061 108.152 131.956 109.507 130.42 110.061C128.901 110.586 127.264 110.664 125.703 110.285C120.556 109.266 116.306 106.818 114.501 101.903" fill="white"/>
<path d="M127.881 110.857C127.134 110.853 126.39 110.776 125.659 110.627C119.735 109.452 115.883 106.563 114.203 102.04C114.141 101.868 114.23 101.679 114.402 101.617C114.574 101.555 114.763 101.644 114.825 101.816C116.418 106.116 120.115 108.868 125.802 109.993C127.303 110.363 128.878 110.292 130.339 109.788C131.759 109.277 132.784 108.029 133.008 106.538C133.12 105.252 132.579 103.966 132.056 102.729L131.876 102.288C131.184 100.608 130.847 98.8039 130.886 96.988V96.7705C130.919 96.4015 130.904 96.0298 130.843 95.6645C130.779 95.2934 130.55 94.9712 130.221 94.7883C129.765 94.6542 129.273 94.809 128.976 95.1798C128.644 95.6248 128.43 96.1463 128.354 96.6959C128.021 98.1577 127.964 99.6685 128.186 101.151C128.212 101.326 128.093 101.489 127.918 101.518C127.759 101.538 127.609 101.437 127.57 101.282C127.276 99.5177 127.222 97.7224 127.408 95.9441V95.8384C127.467 95.4617 127.467 95.0781 127.408 94.7014C127.352 94.3608 127.113 94.0787 126.785 93.9681C126.63 93.9361 126.469 93.9469 126.319 93.9992C125.665 94.2105 125.192 94.9313 124.912 96.1243C124.577 97.582 124.47 99.0828 124.595 100.573C124.573 100.719 124.457 100.831 124.31 100.847C124.164 100.863 124.025 100.779 123.973 100.642C123.74 98.8839 123.713 97.1053 123.892 95.3414C123.954 94.72 123.985 94.0365 123.581 93.7382C123.293 93.5678 122.935 93.5678 122.647 93.7382C122.309 93.942 122.028 94.2286 121.832 94.5709C120.774 96.2113 120.531 98.299 120.314 100.163C120.292 100.322 120.157 100.441 119.996 100.443C119.836 100.441 119.701 100.322 119.679 100.163C119.493 98.6601 119.566 97.1363 119.897 95.6582C120.077 95.2332 120.077 94.7536 119.897 94.3285C119.794 94.1898 119.639 94.0998 119.467 94.08C119.191 94.0395 118.909 94.1087 118.683 94.2726C118.266 94.6441 117.973 95.1342 117.843 95.6769C117.363 96.9956 117.141 98.3942 117.19 99.7965C117.19 100.014 117.221 100.207 117.233 100.387C117.255 100.876 117.307 101.364 117.389 101.847C117.381 101.998 117.269 102.123 117.12 102.148C116.971 102.173 116.824 102.092 116.767 101.953C116.682 101.449 116.628 100.941 116.605 100.43C116.605 100.25 116.605 100.057 116.561 99.8462C116.509 98.366 116.742 96.8896 117.246 95.4967C117.414 94.8272 117.786 94.226 118.31 93.7755C118.67 93.5177 119.115 93.4066 119.554 93.4648C119.894 93.5125 120.201 93.6936 120.407 93.9681C120.716 94.5428 120.759 95.2233 120.525 95.8322C120.522 95.8653 120.522 95.8986 120.525 95.9316C120.726 95.361 120.992 94.8149 121.316 94.3037C121.571 93.8683 121.933 93.5048 122.367 93.2474C122.869 92.9538 123.494 92.9707 123.979 93.2909C124.601 93.7631 124.601 94.633 124.601 95.2357C124.825 94.4306 125.411 93.7757 126.188 93.4648C126.452 93.3711 126.737 93.356 127.009 93.4214C127.573 93.5999 127.987 94.0809 128.08 94.6641C128.137 94.9482 128.153 95.239 128.13 95.5278C128.237 95.3029 128.376 95.0938 128.54 94.9064C129.015 94.3039 129.826 94.0776 130.544 94.3472C131.055 94.6148 131.414 95.1034 131.515 95.6707C131.588 96.0806 131.611 96.4979 131.583 96.9134V97.1309C131.549 98.857 131.869 100.572 132.523 102.17L132.703 102.605C133.232 103.848 133.83 105.271 133.705 106.718C133.471 108.456 132.285 109.918 130.631 110.509C129.746 110.803 128.812 110.921 127.881 110.857Z" fill="#231F20"/>
<path d="M182.151 67.1441L181.205 81.3981C181.205 81.3981 151.957 58.4078 147.06 57.4198V61.44C147.06 61.44 138.927 60.4458 138.279 62.0614C137.632 63.6769 138.734 69.8159 140.849 71.0586C142.094 71.8105 152.604 71.8726 152.604 71.8726C152.604 71.8726 154.092 75.5138 168.591 88.8544C183.09 102.195 196.731 109.328 197.584 96.8326C198.436 84.3371 199.519 63.2792 199.519 63.2792" fill="white"/>
<path d="M192.219 103.612C187.073 103.612 178.598 98.4792 168.373 89.0718C155.623 77.3344 152.903 73.0905 152.405 72.1771C150.669 72.1771 141.932 72.0528 140.688 71.3196C138.36 69.9464 137.284 63.6582 137.981 61.9247C138.678 60.1911 144.776 60.8311 146.742 61.0485V57.3887C146.744 57.2926 146.787 57.2018 146.861 57.1402C146.936 57.0809 147.033 57.0561 147.128 57.0718C151.752 58.0039 176.998 77.6513 180.925 80.7394L181.827 67.1068C181.8 66.9731 181.86 66.8367 181.977 66.7662C182.094 66.6956 182.243 66.706 182.349 66.7921C182.455 66.8783 182.495 67.0216 182.449 67.1503L181.528 81.3981C181.522 81.5172 181.447 81.6216 181.336 81.6652C181.227 81.7158 181.1 81.7014 181.006 81.628C180.726 81.4043 153.14 59.7499 147.402 57.8175V61.4151C147.403 61.5073 147.365 61.5954 147.296 61.6575C147.227 61.7206 147.134 61.7502 147.041 61.7382C143.768 61.3344 138.951 61.2039 138.597 62.167C138.005 63.6396 139.082 69.6233 141.03 70.7728C141.907 71.2885 148.441 71.5122 152.623 71.5433C152.754 71.5416 152.873 71.6206 152.922 71.7421C152.922 71.7732 154.646 75.5511 168.828 88.6058C180.464 99.2994 189.674 104.388 194.155 102.642C196.022 101.903 197.061 99.9332 197.266 96.7953C198.106 84.4489 199.189 63.447 199.202 63.2419C199.205 63.1567 199.242 63.0764 199.305 63.0191C199.369 62.9618 199.452 62.9324 199.538 62.9375C199.623 62.9407 199.703 62.9781 199.761 63.0412C199.818 63.1043 199.848 63.1879 199.843 63.273C199.843 63.4843 198.747 84.4924 197.907 96.8264C197.671 100.231 196.488 102.419 194.379 103.22C193.691 103.488 192.958 103.621 192.219 103.612Z" fill="#231F20"/>
<path d="M181.205 81.367L188.218 86.5864L181.205 81.367Z" fill="white"/>
<path d="M188.218 86.9095C188.149 86.906 188.083 86.8846 188.025 86.8474L181.012 81.628C180.872 81.5182 180.844 81.3176 180.95 81.1744C181.057 81.0356 181.256 81.008 181.398 81.1122L188.411 86.3317C188.519 86.4158 188.562 86.5588 188.519 86.6886C188.475 86.8185 188.355 86.907 188.218 86.9095Z" fill="#231F20"/>
<path d="M19.0049 55.6365C19.0049 55.6365 31.0026 77.8812 31.3262 78.7511C31.4382 79.0431 56.0499 65.8827 56.9522 64.087C56.6565 62.071 56.8551 60.0134 57.5309 58.0909C57.9292 57.0408 58.6635 56.9103 59.5347 56.1709C59.4226 57.483 59.3976 58.8011 59.46 60.1165C61.1116 58.3731 62.8967 56.761 64.7993 55.2948C65.2014 54.8701 65.792 54.6782 66.3674 54.7852C66.6255 54.9151 66.8413 55.1155 66.9897 55.3631C69.5411 58.9484 67.4129 63.2544 65.5834 66.6097C62.1359 72.9227 56.9708 76.8435 51.4822 81.2551C47.8272 84.1723 44.0241 86.8996 40.0881 89.426C37.0403 91.4847 33.7996 93.2431 30.4115 94.6765C28.3828 95.4843 25.5825 96.5406 23.4294 95.534C15.6196 91.9177 6.66484 73.4384 4.21924 65.3049" fill="white"/>
<path d="M25.464 96.2548C24.7267 96.2658 23.9959 96.1152 23.3233 95.8136C18.8988 93.7693 14.4868 87.3196 11.5682 82.268C8.45036 76.9236 5.89768 71.2698 3.95137 65.3981C3.92306 65.2429 4.0156 65.0912 4.16663 65.0452C4.31766 64.9992 4.47927 65.0734 4.54254 65.2179C7.03171 73.5814 16.0549 91.7685 23.5847 95.2544C25.5386 96.1553 28.09 95.2544 30.3241 94.3907C33.6897 92.9616 36.9095 91.2117 39.9385 89.165C43.8678 86.6442 47.6646 83.9232 51.3139 81.0128L52.2598 80.2485C57.3315 76.1911 62.1169 72.3573 65.3279 66.4606C67.2633 62.9188 69.1239 58.8676 66.753 55.5433C66.6337 55.3425 66.4586 55.1806 66.2489 55.0773C65.8569 54.9219 65.3653 55.245 65.0043 55.5371C63.1185 56.9981 61.3461 58.5996 59.7024 60.3278C59.6182 60.4161 59.49 60.447 59.3747 60.4068C59.2593 60.3666 59.1782 60.2628 59.1673 60.1414C59.1175 59.5697 59.1237 57.9045 59.1673 56.8357L58.9494 56.9849C58.4368 57.2488 58.0384 57.6908 57.8293 58.2276C57.1783 60.0976 56.9842 62.0958 57.263 64.0559C57.2844 64.1184 57.2844 64.1861 57.263 64.2485C56.7403 65.2924 49.8764 69.2567 44.1949 72.3946C40.959 74.1903 31.9296 79.0928 31.3384 79.0928C31.2119 79.0839 31.1012 79.0046 31.0521 78.8878C30.8032 78.2167 22.8939 63.4967 18.7494 55.8105C18.667 55.6595 18.7227 55.4703 18.8739 55.388C19.0251 55.3056 19.2146 55.3612 19.2971 55.5122C19.7638 56.3821 30.2307 75.7996 31.5126 78.4031C34.2258 77.3219 55.2966 65.7522 56.6283 64C56.3477 61.9681 56.5611 59.8987 57.2506 57.9666C57.5096 57.3173 57.9901 56.7803 58.6072 56.4505C58.8643 56.2871 59.1116 56.1086 59.3477 55.9161C59.4464 55.8305 59.5881 55.8156 59.7024 55.8788C59.8138 55.9432 59.8753 56.0684 59.858 56.1957C59.7643 57.2451 59.729 58.2989 59.7522 59.3522C61.2719 57.7921 62.8979 56.3387 64.6185 55.0027C65.1288 54.6113 65.8071 54.1887 66.4854 54.4497C66.8095 54.5994 67.0837 54.8388 67.2757 55.1394C70.0636 59.054 67.4499 63.8384 65.888 66.7153C62.6147 72.7177 57.7982 76.5887 52.6581 80.6897L51.706 81.454C48.0449 84.3803 44.2333 87.1138 40.2869 89.6435C37.2227 91.7126 33.9654 93.4814 30.5605 94.925C28.9568 95.6741 27.2297 96.1247 25.464 96.2548Z" fill="#231F20"/>
<path d="M19.0049 55.9223C18.8944 55.9217 18.7926 55.8625 18.7373 55.767L12.7135 45.5084C12.6259 45.3591 12.6761 45.1671 12.8256 45.0796C12.9751 44.9921 13.1673 45.0422 13.2549 45.1915L19.2912 55.4812C19.3337 55.5517 19.3458 55.6365 19.3247 55.7161C19.3036 55.7957 19.2511 55.8634 19.1791 55.9037C19.1246 55.9284 19.0635 55.9349 19.0049 55.9223Z" fill="#231F20"/>
<path d="M182.151 67.4672C182.066 67.4593 181.989 67.4182 181.935 67.3528C181.881 67.2875 181.856 67.2034 181.864 67.1192L183.19 52.6975C183.21 52.5238 183.364 52.3971 183.538 52.4117C183.625 52.4162 183.705 52.4562 183.76 52.5222C183.816 52.5881 183.841 52.6741 183.831 52.7596L182.499 67.1752C182.493 67.2605 182.452 67.3396 182.387 67.3946C182.321 67.4496 182.236 67.4758 182.151 67.4672Z" fill="#231F20"/>
</svg>
