<svg width="188" height="162" viewBox="0 0 188 162" fill="none" xmlns="http://www.w3.org/2000/svg">
<path d="M157.845 118.136C157.845 118.136 180.439 59.1712 168.733 50.1788C157.028 41.1864 107.935 44.8177 105.246 48.0303C102.556 51.2428 86.7202 122.221 86.7202 122.221L157.845 118.136Z" fill="#231F20"/>
<path fill-rule="evenodd" clip-rule="evenodd" d="M86.425 122.461C86.4919 122.535 86.5864 122.577 86.6857 122.578L86.7063 122.591L157.865 118.473C158.001 118.467 158.12 118.381 158.167 118.253L158.17 118.244C158.339 117.802 163.939 103.153 168.013 87.6173C173.605 66.3925 173.92 53.7346 168.946 49.918C161.797 44.4333 141.837 44.0969 133.603 44.2068C119.579 44.3921 106.474 46.0464 104.985 47.8243C102.268 51.0643 87.0013 119.262 86.3564 122.166C86.33 122.27 86.3556 122.38 86.425 122.461ZM133.617 44.8726H136.197C152.15 44.8726 163.862 46.8839 168.507 50.4465C179.54 58.9103 159.031 113.956 157.584 117.793L87.0974 121.857C92.6139 97.2137 103.427 50.728 105.486 48.2499C106.686 46.8427 119.208 45.0648 133.617 44.8726Z" fill="#231F20"/>
<path d="M66.1021 67.1888L55.9199 101.38C55.9199 101.38 76.9224 104.092 76.9224 103.316C76.9224 102.541 81.0392 65.6924 81.0392 65.6924L66.1021 67.1888Z" fill="white"/>
<path fill-rule="evenodd" clip-rule="evenodd" d="M55.8783 101.703C62.2525 102.541 72.318 103.762 75.8653 103.762C76.2937 103.802 76.7254 103.743 77.1278 103.591C77.2096 103.514 77.2588 103.408 77.265 103.296C77.265 102.602 79.9615 78.4053 81.3818 65.7061C81.3964 65.6044 81.3605 65.502 81.2858 65.4315C81.2148 65.357 81.1137 65.3191 81.0113 65.3286L66.0674 66.825C65.9278 66.8392 65.8109 66.9371 65.7723 67.0721L55.5901 101.264C55.5635 101.361 55.5799 101.464 55.635 101.549C55.6902 101.633 55.7788 101.689 55.8783 101.703ZM76.5652 103.097C74.9733 103.323 63.6385 102.026 56.338 101.092L66.3418 67.5114L80.6271 66.0768C80.5996 66.3229 80.5619 66.661 80.5153 67.0797C79.7796 73.678 76.8103 100.308 76.5652 103.097Z" fill="#231F20"/>
<path d="M46.8011 58.6975C46.8903 58.7936 50.5062 57.8258 52.3725 60.0704C54.2388 62.3151 51.8168 64.3195 45.9229 63.1594C40.029 61.9993 46.8011 58.6975 46.8011 58.6975Z" fill="white"/>
<path fill-rule="evenodd" clip-rule="evenodd" d="M45.8542 63.5026C46.9 63.7157 47.9637 63.8283 49.031 63.839C51.055 63.839 52.5302 63.3173 53.0997 62.4181C53.5388 61.663 53.381 60.7637 52.64 59.8851C50.991 57.9082 48.097 58.2601 47.1163 58.3793C47.1094 58.3802 47.1027 58.381 47.0961 58.3818H46.8696C46.7984 58.3577 46.7213 58.3577 46.6501 58.3818C46.0326 58.6907 42.9724 60.2626 43.1714 61.814C43.2743 62.6171 44.1526 63.1663 45.8542 63.5026ZM43.8712 61.6904C43.7752 60.9285 45.5385 59.7203 46.8765 59.0339C46.9588 59.0339 47.0549 59.0339 47.1853 59.0064C48.139 58.8829 50.6845 58.5671 52.098 60.2558C52.5806 60.6859 52.7376 61.3749 52.4891 61.9719C51.9813 62.8299 49.9778 63.5575 45.9914 62.775C44.228 62.4249 43.8712 61.9444 43.8712 61.6904Z" fill="#231F20"/>
<path d="M37.7372 51.5242C37.7372 51.5242 36.9962 50.6731 37.4628 50.0759C37.6757 49.8299 37.9942 49.7017 38.3181 49.7317C38.642 49.7616 38.9315 49.946 39.0958 50.2269C39.0958 50.2269 37.9294 50.6456 37.7372 51.5242Z" fill="white"/>
<path fill-rule="evenodd" clip-rule="evenodd" d="M37.4695 51.7576C37.538 51.8329 37.6354 51.8754 37.7371 51.8743L37.8263 51.8675C37.9549 51.8337 38.0533 51.73 38.0802 51.5997C38.2037 51.0437 38.9378 50.6593 39.2123 50.5632C39.3205 50.5241 39.4026 50.4343 39.4319 50.323C39.4655 50.2108 39.4397 50.0891 39.3632 50.0003C39.0861 49.6153 38.6436 49.3837 38.1694 49.3757C37.7843 49.3762 37.4214 49.5564 37.1882 49.8631C36.6736 50.5083 37.1265 51.3595 37.4695 51.7576ZM37.7508 50.2955C37.8557 50.1633 38.0144 50.0852 38.1831 50.0827L38.19 50.1102C38.2925 50.0955 38.397 50.1098 38.4919 50.1514C38.2086 50.3151 37.9575 50.5291 37.7508 50.7829C37.6715 50.6301 37.6715 50.4483 37.7508 50.2955Z" fill="#231F20"/>
<path d="M39.3563 50.1925C38.5169 50.2608 37.8291 50.8868 37.6821 51.7164L52.3996 70.875C52.5865 68.9855 54.0403 67.4686 55.9195 67.2025L39.3563 50.1925Z" fill="white"/>
<path fill-rule="evenodd" clip-rule="evenodd" d="M52.1184 71.0878C52.1839 71.1734 52.2851 71.224 52.3928 71.2251L52.4957 71.2114C52.6366 71.1716 52.7379 71.0484 52.7496 70.9025C52.9238 69.173 54.2598 67.7881 55.9813 67.5526C56.1106 67.5303 56.2165 67.4376 56.2557 67.3124C56.2994 67.1875 56.2673 67.0486 56.1734 66.9554L39.6102 49.9454C39.5438 49.8762 39.4523 49.8366 39.3563 49.8356C38.3612 49.9136 37.5381 50.6418 37.3391 51.6203C37.3107 51.7273 37.3335 51.8414 37.4009 51.9292L52.1184 71.0878ZM52.2144 70.0513L38.0733 51.6478C38.2221 51.0976 38.6679 50.6781 39.226 50.5632L55.2266 66.9966C53.76 67.4217 52.6194 68.5784 52.2144 70.0513Z" fill="#231F20"/>
<path d="M52.4001 70.875L57.4225 73.4835L58.0469 72.9L55.9199 67.2025C55.9199 67.2025 52.009 66.8113 52.4001 70.875Z" fill="white"/>
<path fill-rule="evenodd" clip-rule="evenodd" d="M57.2575 73.7924C57.3079 73.8203 57.3646 73.8345 57.4222 73.8336C57.5104 73.8339 57.5958 73.8022 57.6623 73.7443L58.2867 73.1609C58.3927 73.0633 58.4281 72.9107 58.3759 72.7764L56.2558 67.079C56.2087 66.9494 56.0911 66.8585 55.9539 66.8456C54.8545 66.754 53.7645 67.1076 52.928 67.8272C52.1759 68.6615 51.8494 69.7957 52.0429 70.9025C52.0539 71.0232 52.1266 71.1297 52.235 71.1839L57.2575 73.7924ZM57.3604 73.051L52.7359 70.6485C52.6135 69.8118 52.8643 68.9636 53.422 68.3283C54.0513 67.8008 54.852 67.5224 55.6726 67.5458L57.6349 72.8039L57.3604 73.051Z" fill="#231F20"/>
<path d="M57.4224 73.4835L58.3829 74.5131L58.8358 73.9983L58.0467 72.9L57.4224 73.4835Z" fill="white"/>
<path fill-rule="evenodd" clip-rule="evenodd" d="M58.1289 74.7534C58.1921 74.8281 58.2851 74.8708 58.3828 74.8701H58.4103C58.5113 74.8702 58.6071 74.8248 58.671 74.7465L59.1238 74.2317C59.2271 74.1035 59.2271 73.9206 59.1238 73.7924L58.3348 72.6941C58.2753 72.612 58.1837 72.5591 58.0829 72.5487C57.9821 72.5382 57.8816 72.5711 57.8065 72.6392L57.1821 73.2226C57.1126 73.2867 57.0707 73.3753 57.0654 73.4698C57.0649 73.5634 57.0991 73.6539 57.1615 73.7237L58.1289 74.7534ZM58.376 73.9846L57.9231 73.4972L57.9849 73.4423L58.376 73.9846Z" fill="#231F20"/>
<path d="M47.7339 72.3783C48.5436 70.7377 50.5745 67.2575 51.0411 65.7473C52.331 61.6286 44.7767 57.7708 42.3341 57.7708C39.8914 57.7708 34.7866 66.3102 34.7866 70.875C34.7866 75.4398 51.6998 110.393 51.6998 110.393L67.9268 102.966L47.7339 72.3783Z" fill="white"/>
<path fill-rule="evenodd" clip-rule="evenodd" d="M51.405 110.551C51.4631 110.673 51.5859 110.75 51.7206 110.75C51.78 110.759 51.8406 110.747 51.8921 110.716L68.126 103.275C68.2184 103.233 68.2883 103.153 68.3181 103.055C68.3443 102.955 68.3268 102.847 68.2701 102.76L48.1733 72.3508C48.3247 72.0678 48.4969 71.7408 48.686 71.382C48.8224 71.1228 48.9677 70.8471 49.1202 70.5592C49.9919 69.0468 50.7577 67.4757 51.4119 65.8571C51.7756 64.5365 51.4593 63.1215 50.5679 62.0817C48.585 59.4183 44.2143 57.4139 42.3343 57.4139C39.6104 57.4139 34.4507 66.2896 34.4507 70.875C34.4507 75.3454 49.9128 107.453 51.3244 110.384C51.3607 110.459 51.3878 110.515 51.405 110.551ZM35.1643 70.875C35.1643 66.3582 40.1867 58.1209 42.3343 58.1209C43.9124 58.1209 48.0773 59.9263 49.9916 62.5279C50.7444 63.3881 51.0197 64.5669 50.7257 65.6718C50.0848 67.247 49.3375 68.7767 48.4889 70.2503C48.0773 71.0191 47.6999 71.7262 47.4392 72.2479C47.3781 72.359 47.3781 72.4937 47.4392 72.6048L67.4262 102.808L51.8853 109.933L51.839 109.837C49.9526 105.9 35.1643 75.0398 35.1643 70.875Z" fill="#231F20"/>
<path d="M134.07 79.2976L154.071 74.1974C153.385 73.2295 145.316 47.6047 136.808 43.4105C129.363 38.4681 111.709 35.1732 96.1131 36.2921C96.1131 36.2921 91.9963 36.1411 84.7782 39.0036C67.1995 45.9915 63.8101 70.3259 63.8101 70.3259L77.5327 75.0692C77.5327 75.0692 74.9117 106.542 72.4347 122.996C72.4347 122.996 102.775 128.934 146.949 121.624C146.983 121.61 134.152 83.9517 134.07 79.2976Z" fill="#E7816B"/>
<path d="M132.424 44.1175C129.775 46.8633 127.71 50.1582 124.787 52.7461C118.488 58.32 110.248 62.7338 101.609 62.1984C91.4272 61.5669 82.6241 54.6064 80.4148 44.4676C79.0425 38.1112 80.4696 32.2078 85.3823 27.7185C88.7787 24.6158 93.1288 22.7212 97.5749 21.5405C109.383 18.376 122.632 20.0578 132.712 26.9909C134.359 28.005 135.749 29.3864 136.774 31.0271C139.292 35.592 136.396 40.2872 133.13 43.4242C132.911 43.637 132.677 43.8773 132.424 44.1175Z" fill="#E7816B"/>
<path d="M97.6845 51.3114C97.5816 51.3114 95.6879 53.6179 95.5918 53.6522C96.669 57.7159 97.808 63.0084 102.405 63.5301C111.73 64.5941 113.143 52.1558 114.9 46.2867C108.443 48.0989 103.887 48.8265 97.6845 51.3114Z" fill="#231F20"/>
<path fill-rule="evenodd" clip-rule="evenodd" d="M102.371 63.8733C102.744 63.9161 103.12 63.939 103.496 63.9419C110.81 63.9351 112.985 55.231 114.405 49.3551C114.433 49.2476 114.459 49.1408 114.486 49.0346C114.73 48.0624 114.959 47.1481 115.195 46.3622C115.227 46.2434 115.196 46.1162 115.112 46.0258C115.025 45.9373 114.896 45.9031 114.776 45.9366C112.774 46.499 110.971 46.9517 109.223 47.3907L109.218 47.3919C105.25 48.3041 101.352 49.4993 97.5541 50.9682C97.4443 51.0163 97.4306 51.0231 96.3671 52.245C96.0035 52.6706 95.5026 53.2541 95.3928 53.357C95.2762 53.4382 95.2216 53.5828 95.2556 53.7208L95.434 54.4073L95.4451 54.4495C96.493 58.4169 97.7968 63.3535 102.371 63.8733ZM96.0721 54.2357L95.9486 53.762H95.9691C96.1201 53.5973 96.3877 53.2952 96.868 52.6775C97.2248 52.2587 97.7051 51.7096 97.8423 51.5723C101.603 50.1163 105.465 48.937 109.397 48.044C109.701 47.9663 110.008 47.888 110.32 47.8088C111.605 47.4822 112.955 47.1388 114.385 46.7466C114.179 47.488 113.973 48.3117 113.761 49.1697L113.756 49.1872C112.192 55.4598 110.055 64.0304 102.426 63.1594C98.3112 62.7279 97.1271 58.2372 96.0791 54.2624L96.0721 54.2357Z" fill="#231F20"/>
<path d="M106.714 3.4322C105.342 3.37729 104.464 3.97449 103.283 4.40008C100.985 5.21008 99.9146 3.28805 97.9385 2.26525C91.5238 -1.07118 83.6473 0.580068 79.1111 6.21229C77.742 7.8345 76.8553 9.80845 76.5518 11.9097C76.2636 14.2848 76.9292 16.7148 76.5175 19.0625C76.0059 21.8034 74.1178 24.0868 71.5225 25.1031C73.7191 25.2728 75.9285 25.0638 78.0544 24.4853C76.8181 25.9554 75.0069 26.8189 73.0868 26.8536C75.2749 28.5368 77.9635 29.4382 80.7235 29.414L75.8863 30.5466C80.003 33.1894 85.0187 33.9788 89.8696 33.7592C99.5303 33.258 115.709 29.3042 115.428 16.7835C115.27 11.9853 112.635 3.70678 106.714 3.4322Z" fill="white"/>
<path fill-rule="evenodd" clip-rule="evenodd" d="M75.6734 30.8555C79.7764 33.4777 84.5107 34.1642 88.209 34.1642C88.7853 34.1642 89.3411 34.1504 89.9175 34.1092C92.8335 33.9582 100.299 33.2306 106.556 30.0936C112.814 26.9565 115.922 22.4741 115.798 16.7835C115.702 11.4155 112.724 3.35669 106.783 3.09585C105.843 3.08987 104.917 3.30876 104.079 3.73424C104.036 3.75199 103.993 3.7699 103.95 3.78789C103.71 3.8882 103.463 3.9912 103.201 4.08432C101.76 4.58542 100.882 3.91957 99.7703 3.07525C99.25 2.65923 98.6944 2.28943 98.1099 1.97008C91.5521 -1.44609 83.4961 0.239951 78.857 5.99949C77.4471 7.6733 76.5344 9.70892 76.2223 11.8754C76.1151 13.017 76.1151 14.1661 76.2223 15.3076C76.36 16.5448 76.3461 17.7943 76.1811 19.0281C75.6901 21.656 73.8721 23.8411 71.3782 24.8011C71.2251 24.8554 71.1327 25.0114 71.1586 25.1718C71.1803 25.3301 71.3083 25.4525 71.4674 25.4669C73.2904 25.6108 75.1247 25.4952 76.9153 25.1237C75.8215 26.0123 74.4612 26.5078 73.0524 26.5309C72.9047 26.5309 72.7736 26.6255 72.7269 26.7656C72.6802 26.9058 72.7284 27.0601 72.8465 27.1487C74.4941 28.4137 76.4254 29.2572 78.4728 29.6062L75.7832 30.2308C75.6517 30.2663 75.5511 30.3723 75.5224 30.5054C75.4992 30.6417 75.5584 30.7789 75.6734 30.8555ZM89.8283 33.4777C86.2672 33.6493 81.183 33.3061 76.7506 30.7319L80.7851 29.7229C80.9556 29.6822 81.0681 29.5194 81.0458 29.3453C81.0279 29.1704 80.8784 29.0388 80.7027 29.0433C78.3339 29.0666 76.0111 28.3883 74.0267 27.0938C75.6933 26.8279 77.2084 25.9701 78.2944 24.6775C78.3804 24.5562 78.3804 24.3938 78.2944 24.2725C78.2123 24.1447 78.056 24.0861 77.9102 24.1284C76.2604 24.5818 74.5574 24.8126 72.8465 24.8148C74.924 23.5772 76.367 21.5031 76.8055 19.1242C76.9814 17.8362 76.9998 16.5315 76.8604 15.239C76.7575 14.1454 76.7575 13.0445 76.8604 11.9509C77.1647 9.92451 78.0271 8.02294 79.351 6.45941C83.7822 0.949574 91.486 -0.662581 97.7531 2.60847C98.3018 2.90733 98.823 3.25419 99.3106 3.645C100.484 4.53737 101.595 5.38169 103.372 4.75703C103.656 4.66035 103.924 4.54772 104.186 4.43786C104.221 4.42291 104.257 4.40802 104.292 4.39322C105.039 4.0153 105.863 3.81559 106.7 3.80974C112.203 4.07746 114.941 11.745 115.057 16.8521C115.174 22.2613 112.196 26.5241 106.192 29.5307C99.983 32.6471 92.6826 33.3267 89.8283 33.4777Z" fill="#231F20"/>
<path d="M94.9058 41.8317L95.5919 53.6522C95.5919 53.6522 100.992 59.8302 107.942 56.0341C114.893 52.2381 114.625 46.218 114.625 46.218L110.062 24.0254C110.062 24.0254 103.757 22.5702 102.151 10.1456C96.7724 14.4065 90.3437 17.1361 83.5435 18.0465C83.5435 18.0465 83.667 31.9469 86.1164 37.4728C88.5659 42.9986 94.9058 41.8317 94.9058 41.8317Z" fill="white"/>
<path fill-rule="evenodd" clip-rule="evenodd" d="M95.3311 53.8787C95.3722 53.9336 98.6588 57.6061 103.379 57.6061C105.031 57.5887 106.65 57.1517 108.086 56.3362C115.044 52.5381 114.952 46.4579 114.948 46.1592C114.948 46.1545 114.948 46.1512 114.948 46.1494L110.378 23.9362C110.351 23.806 110.253 23.7022 110.124 23.6685C108.864 23.2393 107.748 22.4695 106.899 21.4444C105.328 19.7283 103.283 16.3716 102.474 10.0838C102.455 9.95949 102.371 9.85468 102.254 9.80924C102.135 9.76308 102 9.78689 101.904 9.87102C96.5648 14.0684 90.203 16.7649 83.4747 17.6827C83.3057 17.7096 83.1809 17.8547 83.1797 18.0259L83.1798 18.039C83.1886 18.7751 83.3469 32.1345 85.7801 37.5895C87.9552 42.4975 93.1149 42.3603 94.5626 42.2161L95.2487 53.6728C95.251 53.749 95.2802 53.822 95.3311 53.8787ZM107.784 55.7115C101.52 59.1369 96.6073 54.2357 95.9211 53.4875L95.2487 41.7768C95.2409 41.6781 95.194 41.5866 95.1184 41.5228C95.0396 41.4647 94.94 41.4423 94.8439 41.461L94.8433 41.4611C94.5876 41.5038 88.7355 42.4797 86.4251 37.2806C84.2363 32.3314 83.8933 20.3461 83.8933 18.2868C90.4321 17.3182 96.6229 14.7218 101.897 10.7359C103.469 21.5817 108.628 23.8607 109.767 24.2382L114.289 46.2043C114.289 46.2049 114.289 46.2062 114.289 46.2083C114.292 46.3876 114.38 52.1001 107.784 55.7115Z" fill="#231F20"/>
<path d="M107.489 30.2446C109.101 30.4875 110.744 30.0828 112.059 29.1188C113.865 27.6882 114.795 25.4202 114.515 23.1331C114.473 22.2924 114.238 21.4728 113.829 20.7374C113.424 19.9931 112.715 19.462 111.888 19.2821C110.874 19.2191 109.868 19.4864 109.019 20.0441C107.688 20.7305 107.647 21.4925 106.92 22.6182C107.002 22.5153 107.064 22.2269 107.146 22.124" fill="white"/>
<path d="M108.409 30.6633C108.083 30.6621 107.757 30.6368 107.435 30.5878C107.246 30.5562 107.118 30.3789 107.146 30.1897C107.16 30.0999 107.209 30.0194 107.283 29.9664C107.356 29.9134 107.448 29.8924 107.538 29.9082C109.058 30.132 110.604 29.7446 111.84 28.8305C113.549 27.4697 114.426 25.3153 114.152 23.1468C114.124 22.3592 113.915 21.5887 113.541 20.8953C113.183 20.2453 112.564 19.7803 111.84 19.6185C110.989 19.4675 110.138 19.8587 109.191 20.3461C108.54 20.6628 108.031 21.2111 107.764 21.8837C107.62 22.1446 107.462 22.4397 107.249 22.7624C107.235 22.7902 107.217 22.8157 107.194 22.8379C107.08 22.9799 106.873 23.0043 106.728 22.8928C106.577 22.7863 106.54 22.5778 106.646 22.426C106.646 22.426 106.646 22.3368 106.694 22.2887C106.734 22.1645 106.792 22.0466 106.865 21.9386C106.901 21.897 106.945 21.8642 106.995 21.8425L107.126 21.5954C107.465 20.7991 108.078 20.1511 108.855 19.7695C109.665 19.3508 110.783 18.7742 111.929 18.9732C112.872 19.1604 113.685 19.7528 114.152 20.5932C114.573 21.3783 114.807 22.2496 114.838 23.1399C115.133 25.5435 114.149 27.9263 112.244 29.4209C111.13 30.2322 109.787 30.6674 108.409 30.6633Z" fill="#231F20"/>
<path d="M95.2626 48.0508C98.006 47.8534 100.474 46.3116 101.856 43.9322C104.278 39.8891 103.311 37.3012 103.311 37.3012C103.311 37.3012 100.045 41.4679 94.9058 41.8042L95.2626 48.0508Z" fill="#231F20"/>
<path fill-rule="evenodd" clip-rule="evenodd" d="M94.9263 48.0646C94.9337 48.245 95.0821 48.3873 95.2625 48.3872L95.2831 48.4215C98.1353 48.2385 100.709 46.6449 102.144 44.1725C104.628 40.0332 103.674 37.3561 103.633 37.2463C103.589 37.1309 103.487 37.0475 103.366 37.0266C103.243 37.0083 103.119 37.0582 103.043 37.157C103.043 37.1576 103.042 37.1587 103.04 37.1605C102.927 37.2994 99.7423 41.211 94.8851 41.5228C94.7941 41.5281 94.7089 41.5694 94.6484 41.6377C94.5879 41.706 94.557 41.7955 94.5627 41.8866L94.9263 48.0646ZM95.585 47.6802L95.2625 42.1406C98.2738 41.7485 101.051 40.3072 103.105 38.07C103.229 39.031 103.187 41.0354 101.547 43.7812C100.27 45.9342 98.0686 47.374 95.585 47.6802Z" fill="#231F20"/>
<path d="M94 23.0438C94 23.0438 91.427 29.8258 92.5934 30.6358C93.7599 31.4458 96.2231 30.1553 96.2231 30.1553" fill="white"/>
<path d="M93.609 31.2468C93.1797 31.2665 92.7551 31.1513 92.3945 30.9173C91.1046 30.0249 93.0807 24.5746 93.6708 22.9203C93.738 22.7448 93.9337 22.6561 94.1099 22.7212C94.1958 22.7535 94.2652 22.8188 94.3026 22.9027C94.34 22.9865 94.3422 23.0819 94.3089 23.1674C93.115 26.3181 92.2505 29.9631 92.7856 30.3475C93.6021 30.9104 95.4272 30.1828 96.0585 29.8533C96.2274 29.7669 96.4343 29.8308 96.5251 29.9975C96.6098 30.1662 96.5423 30.3717 96.3741 30.4574C95.5194 30.9153 94.5765 31.1845 93.609 31.2468Z" fill="#231F20"/>
<ellipse cx="98.6285" cy="21.5332" rx="0.994933" ry="1.40714" transform="rotate(-17.91 98.6285 21.5332)" fill="#231F20"/>
<ellipse cx="89.4427" cy="23.7108" rx="0.994891" ry="1.4072" transform="rotate(-0.78 89.4427 23.7108)" fill="#231F20"/>
<path fill-rule="evenodd" clip-rule="evenodd" d="M92.9638 38.8045C93.5095 39.1744 94.1574 39.364 94.8163 39.3468C95.2366 39.3451 95.6545 39.2851 96.0582 39.1683C97.7026 38.6553 99.0204 37.4153 99.633 35.8047C100.136 34.5081 100.326 33.1112 100.189 31.7273C100.176 31.6289 100.124 31.5399 100.045 31.4802C99.8868 31.3635 99.7908 31.2948 90.9122 33.2375C90.7489 33.2735 90.6339 33.4202 90.6378 33.5875L90.6378 33.5877C90.6447 33.7406 90.8031 37.2261 92.9638 38.8045ZM93.3549 38.2416C91.8042 37.1158 91.4337 34.6858 91.3514 33.8553V33.8484C94.1782 33.2306 98.343 32.3382 99.5232 32.1254C99.6045 33.294 99.4264 34.466 99.0017 35.5576C98.4574 36.9749 97.2946 38.0649 95.8455 38.5162C95.016 38.8014 94.1024 38.7007 93.3549 38.2416Z" fill="#231F20"/>
<path d="M99.3178 35.6949C98.0004 38.88 94.7001 39.6419 93.1426 38.5368C93.4925 37.3218 94.1306 36.0587 95.3176 35.5988C96.6201 35.1543 98.0381 35.1884 99.3178 35.6949Z" fill="#231F20"/>
<path fill-rule="evenodd" clip-rule="evenodd" d="M92.964 38.8045C93.511 39.1711 94.1585 39.3582 94.8166 39.3399C95.2365 39.3402 95.6544 39.2825 96.0585 39.1683C97.7003 38.6549 99.0172 37.4184 99.6332 35.8116C99.6672 35.7256 99.6672 35.6299 99.6332 35.5439C99.5946 35.4578 99.5228 35.391 99.4342 35.3586C98.0818 34.8339 96.5879 34.8023 95.2145 35.2693C94.1099 35.6881 93.3071 36.7589 92.8405 38.4338C92.7984 38.5711 92.848 38.72 92.964 38.8045ZM95.8458 38.5093C95.0971 38.7584 94.2812 38.7092 93.5678 38.372C94.0001 37.0678 94.6176 36.2303 95.4615 35.8871C96.5618 35.5212 97.7508 35.5212 98.851 35.8871C98.2677 37.149 97.1747 38.1027 95.8458 38.5093Z" fill="#231F20"/>
<path fill-rule="evenodd" clip-rule="evenodd" d="M81.2105 26.9016C81.4169 27.8471 82.2535 28.5213 83.2209 28.5216C83.3697 28.5136 83.5171 28.4883 83.66 28.4461L91.3104 26.7712C92.3995 26.5155 93.0851 25.4363 92.8542 24.3412L92.1681 21.0669C92.0515 20.5321 91.727 20.0657 91.2661 19.7707C90.8052 19.4758 90.2459 19.3765 89.7117 19.4949L82.0613 21.1767C80.9513 21.4196 80.2479 22.5166 80.4901 23.6273L81.2105 26.9016ZM89.8627 20.1608C89.9607 20.1506 90.0596 20.1506 90.1577 20.1608L90.1851 20.1402C90.8167 20.1493 91.3605 20.5884 91.5025 21.2042L92.1886 24.4785C92.3343 25.2039 91.8791 25.9143 91.1594 26.0847L83.5091 27.8008C82.784 27.9465 82.0739 27.4912 81.9035 26.7712L81.1831 23.4488C81.0337 22.7189 81.4935 22.0031 82.2191 21.8357L89.8627 20.1608Z" fill="#231F20"/>
<path fill-rule="evenodd" clip-rule="evenodd" d="M95.7428 25.2061C96.0741 25.4202 96.4599 25.5346 96.8543 25.5356C97.0156 25.5349 97.1764 25.5188 97.3346 25.4875L104.978 23.8126C106.078 23.554 106.763 22.4574 106.515 21.3552L105.829 18.0809C105.712 17.546 105.388 17.0797 104.927 16.7847C104.466 16.4898 103.907 16.3905 103.373 16.5089L95.7291 18.1838C95.1934 18.301 94.7266 18.6271 94.4323 19.0899C94.1389 19.5502 94.0401 20.1082 94.1578 20.6413L94.8439 23.9156C94.9611 24.4478 95.2843 24.9119 95.7428 25.2061ZM103.496 17.1953C103.593 17.1738 103.692 17.1623 103.791 17.161C104.435 17.1581 104.994 17.6035 105.136 18.2319L105.822 21.5062C105.899 21.8573 105.835 22.2246 105.644 22.529C105.448 22.8294 105.143 23.0412 104.793 23.1193L97.1425 24.7942C96.4174 24.9399 95.7073 24.4846 95.5369 23.7646L94.8165 20.4903C94.7419 20.1382 94.8084 19.7709 95.0018 19.4675C95.1941 19.1639 95.5009 18.951 95.8526 18.8771L103.496 17.1953Z" fill="#231F20"/>
<path d="M91.818 21.4993C91.7552 21.5007 91.6933 21.484 91.6396 21.4513C91.4732 21.3529 91.4154 21.1398 91.5093 20.9708C91.8317 20.4147 92.8815 19.543 94.6037 20.2363C94.7932 20.3083 94.8884 20.5204 94.8164 20.7099C94.7444 20.8995 94.5324 20.9947 94.343 20.9227C92.806 20.3049 92.1885 21.2453 92.1268 21.3552C92.0541 21.4515 91.9385 21.5055 91.818 21.4993Z" fill="#231F20"/>
<path d="M23.4656 112.878H164.534L187.17 154.236H0.830078L23.4656 112.878Z" fill="white"/>
<path fill-rule="evenodd" clip-rule="evenodd" d="M0.830187 154.58H187.17C187.292 154.581 187.407 154.519 187.472 154.415C187.53 154.308 187.53 154.179 187.472 154.072L164.829 112.714C164.77 112.602 164.654 112.533 164.527 112.535H23.4794C23.3533 112.533 23.2367 112.602 23.1775 112.714L0.53515 154.072C0.476564 154.179 0.476564 154.308 0.53515 154.415C0.598725 154.517 0.710101 154.579 0.830187 154.58ZM186.587 153.893H1.4134L23.6715 113.222H164.328L186.587 153.893Z" fill="#D1D3D4"/>
<path d="M25.6543 86.1963L25.9562 84.8921C26.6423 83.5879 27.4039 82.7092 29.1742 82.7092H96.3258C97.9931 82.712 99.4595 83.813 99.928 85.4138L110.844 122.935C111.429 124.605 110.615 126.441 108.985 127.129L107.798 127.41L25.6543 86.1963Z" fill="white"/>
<path fill-rule="evenodd" clip-rule="evenodd" d="M107.647 127.719C107.695 127.74 107.746 127.752 107.798 127.753L107.867 127.781L109.095 127.486C110.889 126.732 111.79 124.713 111.153 122.873L100.23 85.304C99.715 83.5594 98.1169 82.3596 96.2986 82.3523H29.1469C27.1023 82.3523 26.3132 83.4712 25.6271 84.7137C25.6241 84.7433 25.6241 84.7732 25.6271 84.8029L25.3252 86.1071C25.2863 86.2613 25.3607 86.4217 25.5036 86.4915L107.647 127.719ZM107.867 127.046L26.0731 86.011L26.2789 85.0157C27.0062 83.7389 27.658 83.0525 29.1744 83.0525H96.3466C97.8599 83.0598 99.1897 84.0582 99.6195 85.5099L110.536 123.031C110.927 124.39 110.584 126.154 108.93 126.799L107.867 127.046Z" fill="#231F20"/>
<path d="M107.798 127.41H39.2743C38.3183 127.4 37.4821 126.764 37.2159 125.845L25.6821 86.1964C25.5938 85.888 25.6553 85.5561 25.8481 85.2999C26.0409 85.0436 26.3426 84.8927 26.6632 84.8921H97.0191L108.937 125.893C109.044 126.252 108.974 126.64 108.75 126.939C108.525 127.238 108.172 127.413 107.798 127.41Z" fill="#231F20"/>
<path fill-rule="evenodd" clip-rule="evenodd" d="M39.274 127.753H107.798C108.279 127.753 108.731 127.526 109.02 127.142C109.309 126.757 109.4 126.259 109.266 125.797L97.3413 84.796C97.3008 84.652 97.1684 84.5533 97.0188 84.5558H26.6355C26.2095 84.5597 25.8096 84.7613 25.5529 85.1014C25.2963 85.4415 25.2121 85.8815 25.325 86.2924L36.8588 125.941C37.1765 127.012 38.1576 127.748 39.274 127.753ZM26.0983 85.5084C26.2257 85.3394 26.4239 85.2386 26.6355 85.2353H96.7444L108.614 125.989C108.69 126.243 108.641 126.518 108.484 126.731C108.321 126.944 108.067 127.069 107.798 127.067H39.274C38.46 127.065 37.7437 126.529 37.5107 125.749L25.9837 86.1002C25.9286 85.8958 25.9709 85.6775 26.0983 85.5084Z" fill="#231F20"/>
<path d="M96.3056 110.517L92.1408 128.234C91.6869 130.187 89.9456 131.567 87.9417 131.563H44.5987C43.2807 131.563 42.0352 130.959 41.2171 129.926C40.399 128.892 40.0979 127.541 40.3996 126.257L44.0704 110.517H40.4819L36.969 125.447C36.4318 127.776 36.985 130.223 38.4717 132.094C39.9585 133.965 42.2165 135.056 44.6056 135.057H87.976C91.5935 135.055 94.7374 132.571 95.5783 129.051L99.9284 110.517L96.3056 110.517Z" fill="white"/>
<path fill-rule="evenodd" clip-rule="evenodd" d="M44.5983 135.448H87.9412C91.7521 135.474 95.0718 132.854 95.9347 129.14L100.292 110.606C100.312 110.505 100.286 110.399 100.221 110.318C100.156 110.237 100.059 110.19 99.9554 110.187H96.3326C96.1754 110.187 96.0386 110.295 96.0033 110.448L91.8384 128.165C91.4199 129.965 89.8153 131.237 87.9687 131.234H44.5983C43.3845 131.232 42.2379 130.676 41.4842 129.725C40.7305 128.773 40.4523 127.529 40.7285 126.346L44.4268 110.606C44.4516 110.506 44.4288 110.399 44.365 110.318C44.2997 110.237 44.2016 110.189 44.0974 110.187H40.4747C40.3157 110.186 40.1766 110.294 40.1384 110.448L36.6323 125.385C36.0602 127.82 36.6316 130.383 38.1837 132.343C39.7358 134.304 42.0983 135.448 44.5983 135.448ZM37.2841 125.543L40.7148 110.874H43.6583L40.063 126.188C39.7358 127.575 40.0605 129.035 40.9444 130.152C41.8282 131.269 43.1742 131.921 44.5983 131.92H87.9549C90.1216 131.93 92.0056 130.436 92.4903 128.323L96.6071 110.874H99.5231L95.2691 128.975C94.482 132.371 91.4531 134.772 87.9687 134.762H44.5983C42.3043 134.769 40.1337 133.724 38.7075 131.926C37.2813 130.129 36.7569 127.777 37.2841 125.543Z" fill="#231F20"/>
<path d="M152.198 74.3896C152.198 74.3896 158.332 101.641 153.309 108.602C148.287 115.562 113.212 114.464 113.212 114.464C113.212 114.464 107.524 121.294 102.583 120.841C97.6433 120.388 100.525 111.039 106.337 107.147L105.534 103.9L136.458 98.9367L132.341 79.3526" fill="white"/>
<path d="M103.036 121.205C102.867 121.205 102.696 121.205 102.522 121.205C101.207 121.139 100.102 120.194 99.8321 118.905C99.0568 115.864 101.541 110.064 105.911 107.016L105.17 104.003C105.146 103.912 105.161 103.814 105.211 103.735C105.264 103.653 105.349 103.598 105.445 103.584L136.012 98.6758L131.964 79.4555C131.945 79.3663 131.963 79.2735 132.014 79.1975C132.064 79.1216 132.142 79.0687 132.231 79.0505C132.32 79.0302 132.412 79.0464 132.489 79.0955C132.565 79.1446 132.618 79.2225 132.636 79.3114L136.753 98.8955C136.773 98.9885 136.753 99.0858 136.698 99.1632C136.646 99.2406 136.564 99.2929 136.472 99.3074L105.918 104.215L106.604 107.098C106.64 107.237 106.585 107.382 106.467 107.462C102.268 110.277 99.7498 115.94 100.47 118.754C100.661 119.753 101.513 120.49 102.529 120.532C107.229 120.971 112.821 114.354 112.862 114.279C112.929 114.197 113.031 114.152 113.136 114.155C113.486 114.155 148.129 115.164 152.973 108.43C157.817 101.696 151.875 74.7946 151.813 74.4994C151.786 74.3768 151.827 74.2491 151.92 74.1644C152.012 74.0797 152.143 74.051 152.263 74.0889C152.382 74.1269 152.473 74.2258 152.5 74.3484C152.753 75.4673 158.606 101.806 153.549 108.835C148.609 115.7 116.231 114.931 113.301 114.842C112.526 115.748 107.633 121.205 103.036 121.205Z" fill="#231F20"/>
<path d="M115.401 60.8942C115.348 60.8933 115.296 60.8792 115.25 60.853C115.165 60.8144 115.099 60.7427 115.068 60.6547C115.037 60.5666 115.043 60.4696 115.085 60.3862C120.066 50.0896 132.856 43.1634 132.986 43.0947C133.068 43.0491 133.164 43.0387 133.254 43.0659C133.343 43.0931 133.417 43.1556 133.46 43.2389C133.505 43.3215 133.516 43.4191 133.489 43.5096C133.462 43.6001 133.399 43.6757 133.315 43.7194C133.192 43.7881 120.601 50.5838 115.723 60.6951C115.661 60.8167 115.537 60.8935 115.401 60.8942Z" fill="#231F20"/>
<path d="M94.2537 60.4068C94.2039 60.4171 94.1526 60.4171 94.1028 60.4068C82.1504 54.9153 80.7026 42.8476 80.6889 42.7309C80.6689 42.5359 80.8098 42.3613 81.0045 42.3397C81.0975 42.3281 81.1911 42.3542 81.2646 42.4123C81.3382 42.4703 81.3853 42.5554 81.3956 42.6486C81.3956 42.7653 82.8228 54.4416 94.4321 59.6998C94.6087 59.7808 94.688 59.9883 94.6105 60.1665C94.5567 60.3159 94.4123 60.4132 94.2537 60.4068Z" fill="#231F20"/>
<path d="M39.7954 75.9684C39.6422 75.9246 39.5366 75.7846 39.5366 75.6252C39.5366 75.4658 39.6422 75.3257 39.7954 75.282C44.9688 75.1241 47.4801 72.1998 47.5075 72.1724C47.5665 72.1002 47.6518 72.0546 47.7445 72.0456C47.8373 72.0365 47.9298 72.0649 48.0015 72.1243C48.1526 72.2497 48.1741 72.4736 48.0496 72.6254C47.9398 72.7559 45.305 75.8242 39.816 75.989L39.7954 75.9684Z" fill="#231F20"/>
<path d="M132.3 79.7026C132.137 79.704 131.995 79.5931 131.957 79.4349C131.957 79.3114 128.725 66.6603 128.279 59.0751C128.273 58.9822 128.305 58.8909 128.367 58.8213C128.429 58.7518 128.515 58.7097 128.608 58.7044C128.803 58.6926 128.971 58.8393 128.986 59.0339C129.432 66.5504 132.615 79.1329 132.643 79.2633C132.691 79.4527 132.578 79.6454 132.389 79.6958L132.3 79.7026Z" fill="#231F20"/>
<path d="M76.9975 81.961C76.9033 81.9558 76.8153 81.9127 76.7533 81.8417C76.6913 81.7706 76.6606 81.6775 76.6681 81.5835L78.3697 54.9153C78.375 54.8211 78.418 54.733 78.489 54.671C78.5601 54.6089 78.6531 54.5782 78.7471 54.5858C78.8406 54.5892 78.9287 54.6307 78.9909 54.7007C79.0531 54.7707 79.084 54.8631 79.0764 54.9564L77.3474 81.6247C77.34 81.8126 77.1855 81.9612 76.9975 81.961Z" fill="#231F20"/>
<path d="M137.748 67.0447C137.618 67.0462 137.499 66.9745 137.439 66.8593L134.118 60.6814C134.081 60.5912 134.081 60.4901 134.118 60.3999C134.15 60.3077 134.216 60.2314 134.303 60.1871L144.595 55.3203C144.68 55.278 144.778 55.2717 144.867 55.3027C144.956 55.3337 145.029 55.3995 145.069 55.485C145.153 55.6614 145.079 55.8724 144.904 55.9586L134.928 60.6676L137.933 66.2415L148.04 63.1525C148.162 63.1158 148.295 63.1472 148.388 63.235C148.481 63.3228 148.521 63.4536 148.491 63.5782C148.462 63.7028 148.368 63.8022 148.246 63.839L137.851 67.0515L137.748 67.0447Z" fill="#231F20"/>
<ellipse cx="146.661" cy="140.274" rx="16.9406" ry="5.10025" fill="white"/>
<path fill-rule="evenodd" clip-rule="evenodd" d="M129.377 140.274C129.377 143.329 136.972 145.718 146.661 145.718C156.349 145.718 163.944 143.329 163.944 140.274C163.944 137.219 156.349 134.831 146.661 134.831C136.972 134.831 129.377 137.219 129.377 140.274ZM130.063 140.274C130.063 137.975 136.732 135.517 146.661 135.517C156.589 135.517 163.258 137.975 163.258 140.274C163.258 142.574 156.589 145.031 146.661 145.031C136.732 145.031 130.063 142.574 130.063 140.274Z" fill="#D1D3D4"/>
<path d="M133.892 125.708L133.487 125.783C132.263 125.966 131.149 126.594 130.358 127.548C129.454 128.929 129.414 130.705 130.255 132.126C132.053 135.366 136.43 136.245 139.806 136.581C140.284 136.659 140.773 136.621 141.233 136.471C141.699 136.312 142.014 135.878 142.022 135.387C141.963 134.986 141.705 134.642 141.336 134.474C140.983 134.31 140.605 134.203 140.218 134.158C138.118 133.815 135.909 133.561 133.988 132.593C132.869 132.023 131.305 130.726 132.122 129.325C132.407 128.882 132.818 128.533 133.302 128.323C135.23 127.403 137.062 128.104 138.962 128.666C139.1 128.717 139.248 128.738 139.395 128.728C139.771 128.625 140.01 128.256 139.95 127.87C139.889 127.04 139.058 126.497 138.276 126.188C136.879 125.658 135.37 125.492 133.892 125.708Z" fill="white"/>
<path fill-rule="evenodd" clip-rule="evenodd" d="M139.779 136.924C139.977 136.946 140.176 136.958 140.376 136.959C140.71 136.964 141.042 136.908 141.357 136.794C141.946 136.657 142.375 136.15 142.415 135.546C142.454 134.943 142.094 134.385 141.528 134.172C141.141 133.987 140.726 133.868 140.3 133.822L139.525 133.698C137.677 133.503 135.87 133.026 134.166 132.284C133.348 131.923 132.69 131.276 132.314 130.465C132.216 130.141 132.263 129.79 132.444 129.504C132.694 129.116 133.055 128.812 133.48 128.632C135.12 127.85 136.712 128.33 138.4 128.845L138.894 128.996C139.079 129.059 139.275 129.084 139.47 129.071C140.025 128.939 140.392 128.41 140.321 127.843C140.231 126.724 139.113 126.127 138.427 125.873C136.968 125.313 135.389 125.141 133.844 125.372L133.418 125.447C132.112 125.648 130.925 126.322 130.084 127.342C129.096 128.83 129.045 130.752 129.953 132.291C131.415 134.927 134.626 136.437 139.779 136.924ZM133.555 126.12L133.947 126.051V126.065C135.374 125.851 136.832 126.01 138.18 126.525C138.599 126.676 139.58 127.129 139.635 127.898C139.648 128.104 139.545 128.385 139.381 128.385C139.282 128.387 139.185 128.371 139.093 128.337L138.599 128.186C136.863 127.657 135.065 127.115 133.185 128.014C132.636 128.25 132.172 128.648 131.854 129.154C131.575 129.606 131.503 130.155 131.655 130.664C132.083 131.658 132.869 132.454 133.857 132.895C135.622 133.673 137.497 134.173 139.415 134.378L140.19 134.501C140.539 134.537 140.88 134.63 141.199 134.776C141.454 134.893 141.634 135.13 141.679 135.407C141.656 135.75 141.428 136.045 141.103 136.156C140.694 136.279 140.262 136.307 139.84 136.238C134.935 135.778 131.895 134.378 130.557 131.961C129.777 130.657 129.807 129.022 130.633 127.747C131.377 126.868 132.416 126.289 133.555 126.12Z" fill="#231F20"/>
<path d="M135.477 122.234C135.477 122.234 138.646 138.064 138.907 139.018C139.168 139.972 146.661 143.892 152.63 140.041L157.851 123.861L135.477 122.234Z" fill="white"/>
<path fill-rule="evenodd" clip-rule="evenodd" d="M141.549 141.05C143.222 141.698 144.998 142.037 146.791 142.052C148.919 142.089 151.01 141.502 152.808 140.363C152.876 140.323 152.927 140.259 152.953 140.185L158.174 124.006C158.209 123.905 158.194 123.795 158.135 123.707C158.075 123.619 157.978 123.564 157.872 123.559L135.497 121.898C135.391 121.886 135.285 121.927 135.214 122.008C135.143 122.088 135.115 122.199 135.141 122.303C135.271 122.955 138.317 138.153 138.571 139.107C138.736 139.718 140.232 140.542 141.549 141.05ZM139.237 138.929C139.01 138.084 136.417 125.186 135.902 122.612L157.412 124.177L152.363 139.821C148.753 142.073 144.815 141.366 142.757 140.741C140.568 140.075 139.333 139.155 139.237 138.929Z" fill="#231F20"/>
<ellipse cx="146.696" cy="122.697" rx="4.86" ry="11.2183" transform="rotate(-87.65 146.696 122.697)" fill="#231F20"/>
<path fill-rule="evenodd" clip-rule="evenodd" d="M146.475 127.918H147.566C149.956 127.971 152.336 127.592 154.592 126.799C156.863 125.948 158.181 124.644 158.236 123.202C158.359 120.278 153.378 117.8 146.901 117.532C140.424 117.265 135.257 119.324 135.134 122.248C135.01 125.172 139.991 127.657 146.475 127.918ZM135.813 122.283C135.909 119.949 140.403 118.164 145.844 118.164L146.901 118.184C152.781 118.425 157.687 120.697 157.584 123.147C157.536 124.28 156.369 125.372 154.38 126.133C151.853 127.019 149.176 127.395 146.503 127.239C140.616 126.998 135.717 124.726 135.813 122.283Z" fill="#231F20"/>
<path fill-rule="evenodd" clip-rule="evenodd" d="M83.5433 78.2542H119.846C120.028 78.2546 120.179 78.1131 120.19 77.9316V67.1888C120.19 66.9993 120.036 66.8456 119.846 66.8456H83.5433C83.3553 66.8492 83.2038 67.0008 83.2002 67.1888V77.911C83.2002 78.1006 83.3538 78.2542 83.5433 78.2542ZM119.503 77.5678H83.8863V67.532H119.503V77.5678Z" fill="white"/>
<rect x="0.830078" y="154.236" width="186.333" height="7.18703" fill="white"/>
<path fill-rule="evenodd" clip-rule="evenodd" d="M0.83037 161.767H187.17C187.359 161.767 187.513 161.613 187.513 161.423V154.236C187.509 154.048 187.358 153.897 187.17 153.893H0.83037C0.642433 153.897 0.490955 154.048 0.487305 154.236V161.423C0.487305 161.613 0.6409 161.767 0.83037 161.767ZM186.827 161.08H1.17344V154.58H186.827V161.08Z" fill="#D1D3D4"/>
<path d="M157.845 87.1162C157.657 87.1088 157.508 86.9542 157.508 86.7661C157.508 85.9767 158.009 67.3673 160.061 60.9216C162.112 54.4759 165.961 51.7919 166.119 51.689C166.277 51.5828 166.49 51.6243 166.596 51.7817C166.702 51.939 166.661 52.1526 166.503 52.2587C166.462 52.2587 162.709 54.8603 160.713 61.1275C158.716 67.3947 158.201 86.5876 158.194 86.7798C158.193 86.8709 158.155 86.9575 158.089 87.0205C158.023 87.0836 157.935 87.118 157.845 87.1162Z" fill="white"/>
</svg>
