<svg width="690" height="350" viewBox="0 0 690 350" fill="none" xmlns="http://www.w3.org/2000/svg">
<g clip-path="url(#clip0_0_5255)">
<circle opacity="0.308943" cx="710" cy="321" r="146" transform="rotate(-90 710 321)" fill="url(#paint0_linear_0_5255)"/>
<circle opacity="0.308943" cx="418" cy="321" r="146" fill="url(#paint1_linear_0_5255)"/>
<circle opacity="0.308943" cx="126" cy="321" r="146" transform="rotate(90 126 321)" fill="url(#paint2_linear_0_5255)"/>
</g>
<g clip-path="url(#clip1_0_5255)">
<circle opacity="0.308943" cx="710" cy="29" r="146" transform="rotate(-90 710 29)" fill="url(#paint3_linear_0_5255)"/>
<circle opacity="0.308943" cx="418" cy="29" r="146" fill="url(#paint4_linear_0_5255)"/>
</g>
<defs>
<linearGradient id="paint0_linear_0_5255" x1="564" y1="467" x2="856" y2="467" gradientUnits="userSpaceOnUse">
<stop stop-color="#5D0202" stop-opacity="0.01"/>
<stop offset="1" stop-color="#5D0202" stop-opacity="0.497569"/>
</linearGradient>
<linearGradient id="paint1_linear_0_5255" x1="272" y1="467" x2="564" y2="467" gradientUnits="userSpaceOnUse">
<stop stop-color="#5D0202" stop-opacity="0.01"/>
<stop offset="1" stop-color="#5D0202" stop-opacity="0.497569"/>
</linearGradient>
<linearGradient id="paint2_linear_0_5255" x1="-20" y1="467" x2="272" y2="467" gradientUnits="userSpaceOnUse">
<stop stop-color="#5D0202" stop-opacity="0.01"/>
<stop offset="1" stop-color="#5D0202" stop-opacity="0.497569"/>
</linearGradient>
<linearGradient id="paint3_linear_0_5255" x1="564" y1="175" x2="856" y2="175" gradientUnits="userSpaceOnUse">
<stop stop-color="#5D0202" stop-opacity="0.01"/>
<stop offset="1" stop-color="#5D0202" stop-opacity="0.497569"/>
</linearGradient>
<linearGradient id="paint4_linear_0_5255" x1="272" y1="175" x2="564" y2="175" gradientUnits="userSpaceOnUse">
<stop stop-color="#5D0202" stop-opacity="0.01"/>
<stop offset="1" stop-color="#5D0202" stop-opacity="0.497569"/>
</linearGradient>
<clipPath id="clip0_0_5255">
<rect width="876" height="292" fill="white" transform="matrix(-1 0 0 1 856 175)"/>
</clipPath>
<clipPath id="clip1_0_5255">
<rect width="584" height="292" fill="white" transform="matrix(-1 0 0 1 856 -117)"/>
</clipPath>
</defs>
</svg>
